<svg width="15" height="18" viewBox="0 0 15 18" fill="none" xmlns="http://www.w3.org/2000/svg">
<path d="M0.901585 13.9485L4.27808 1.51123L9.40568 2.86729C10.9109 3.26536 11.9742 3.85645 12.5956 4.64057C13.2171 5.42469 13.3758 6.37635 13.0733 7.4909C12.908 8.09947 12.6047 8.59654 12.1693 8.9787C11.7315 9.36024 11.2036 9.58301 10.5891 9.6529C11.1808 9.98182 11.5934 10.4333 11.8269 11.0174C12.064 11.5974 12.089 12.2363 11.8985 12.9381C11.5744 14.132 10.9483 14.9385 10.0198 15.3503C9.0884 15.7637 7.92038 15.7897 6.50748 15.431L0.901585 13.9485ZM5.4289 7.14865L8.15565 7.86977C9.45384 8.1881 10.2339 7.86958 10.5073 6.86229C10.6605 6.29802 10.6066 5.84891 10.3454 5.51494C10.0866 5.18159 9.60499 4.91927 8.89927 4.73264L6.27334 4.03818L5.4289 7.14865ZM4.92249 9.014L3.90967 12.7447L6.93887 13.5458C7.53908 13.7045 8.98979 13.7758 9.35124 12.4444C9.71269 11.113 9.22037 10.1681 8.04782 9.84053L4.92249 9.014Z" fill="#F2F2F2"/>
<path d="M6.65955 0.147583L8.53216 0.643249L7.6891 3.75136L5.81648 3.2557L6.65955 0.147583ZM9.78213 0.974106L11.6547 1.46977L10.8117 4.57788L8.93907 4.08222L9.78213 0.974106ZM3.12044 13.1951L4.99306 13.6908L4.14999 16.7989L2.27738 16.3032L3.12044 13.1951ZM6.24303 14.0217L8.11564 14.5173L7.27258 17.6254L5.39996 17.1298L6.24303 14.0217Z" fill="#F2F2F2"/>
</svg>
