<svg width="24" height="24" viewBox="0 0 24 24" fill="none" xmlns="http://www.w3.org/2000/svg">
<path d="M24.4242 11.9532C24.4242 5.04389 18.823 -0.557251 11.9137 -0.557251C5.00433 -0.557251 -0.596802 5.04389 -0.596802 11.9532C-0.596802 18.8626 5.00433 24.4637 11.9137 24.4637C18.823 24.4637 24.4242 18.8626 24.4242 11.9532Z" fill="url(#paint0_radial_2227_2809)"/>
<path d="M20.421 8.04824C20.3686 8.35447 20.3073 8.50293 20.2356 8.67485L20.2354 8.67526C20.1579 8.86147 20.07 9.0729 19.9904 9.4924C19.9587 9.66028 19.9429 9.78352 19.9292 9.89207L19.9283 9.89881L19.9274 9.90515C19.9053 10.079 19.8905 10.1961 19.8198 10.4046C19.7625 10.5748 19.6667 10.8589 19.4358 11.1648C19.2493 11.4124 18.9372 11.8268 18.5206 11.8764C18.4845 11.8788 18.4089 11.8826 18.378 11.8668C17.1964 11.2634 16.1811 10.8176 15.8297 10.7176C15.421 10.6017 15.4733 9.71057 15.5196 8.92431C15.5404 8.57291 15.5599 8.24066 15.5435 7.95614C15.486 6.96357 15.3103 5.87716 14.4459 5.3475C13.9298 5.03143 13.2641 4.93865 12.6281 4.9373C12.7459 4.88121 12.8774 4.80502 13.0206 4.72169L13.025 4.71913C13.3995 4.50231 13.8644 4.23303 14.3264 4.1857C14.4774 4.17073 14.6259 4.15333 14.7723 4.13702C15.7035 4.03157 16.5081 3.94096 17.3567 4.23155C17.7414 4.36356 18.5305 4.80381 18.7342 5.21252C18.8777 5.50108 19.1197 5.726 19.6026 6.17488C19.854 6.4087 20.0195 6.54476 20.1408 6.64427L20.1463 6.64886C20.3165 6.78882 20.35 6.81808 20.4007 6.92151C20.5572 7.24041 20.5001 7.57913 20.421 8.04824Z" fill="white"/>
<path d="M16.1226 12.1286C16.1785 12.1478 16.1994 12.2158 16.1669 12.2652C16.0407 12.4566 15.8962 12.7193 15.7229 13.0405C15.6416 13.1919 15.5646 13.3348 15.5 13.4464C15.2711 13.8396 15.2524 14.1705 15.2379 14.4361C15.2221 14.7139 15.2081 14.8414 15.0421 14.9521C14.9051 15.044 14.7647 15.0746 13.7918 15.2228C13.6221 15.2491 13.5467 15.282 13.4805 15.3108C13.4624 15.3186 13.4445 15.3265 13.424 15.3341C13.3678 15.3552 13.3128 15.3073 13.3161 15.2476C13.3238 15.1073 13.3288 14.9322 13.3293 14.7119V14.6697C13.3345 14.479 13.3265 14.3243 13.3196 14.1996C13.3068 13.9512 13.3052 13.8466 13.3714 13.7384C13.4527 13.6078 13.5161 13.5679 13.6203 13.5018C13.7658 13.4104 13.9654 13.2846 14.2607 12.8787C14.4176 12.6637 14.4524 12.5472 14.4741 12.4465C14.4836 12.4047 14.4869 12.3891 14.6078 12.2975C14.7355 12.2006 15.1248 11.9057 15.623 11.9894C15.7608 12.0127 15.9364 12.0642 16.1226 12.1286Z" fill="white"/>
<path d="M12.2514 16.614C12.2303 16.6417 12.2055 16.6545 12.1697 16.6562C12.0681 16.6606 11.9966 16.6353 11.9493 16.5784C11.8489 16.4563 11.8624 16.2109 11.8859 16.0674L12.2973 15.9578C12.3295 16.1755 12.3446 16.4928 12.2514 16.614Z" fill="white"/>
<path d="M12.2847 15.1293C12.2779 15.1893 12.2703 15.2568 12.2706 15.3275C12.2711 15.3538 12.2714 15.3803 12.2722 15.4061C12.273 15.4734 12.2757 15.5802 12.2664 15.6287C12.1379 15.6755 12.0281 15.6755 11.8839 15.673C11.8817 15.6313 11.8844 15.5691 11.886 15.5272C11.8868 15.4948 11.8886 15.4626 11.889 15.4319C11.8894 15.3977 11.889 15.3642 11.889 15.3306C11.8884 15.2514 11.8874 15.1217 11.9068 15.0836C11.9455 15.0779 11.9851 15.0694 12.0276 15.0597C12.1127 15.0414 12.2237 15.0179 12.2943 15.0285C12.2932 15.0561 12.2889 15.0969 12.2847 15.1293Z" fill="white"/>
<path d="M11.5236 16.4874C11.5038 16.6983 11.4386 16.9591 11.2408 16.9987C11.1518 17.0171 11.1088 16.9902 11.0817 16.9647C10.9481 16.841 10.9268 16.4669 10.9454 16.1994C11.0344 16.201 11.151 16.181 11.2891 16.1543C11.3734 16.1376 11.4572 16.119 11.524 16.1036C11.5317 16.2026 11.5372 16.3439 11.5236 16.4874Z" fill="white"/>
<path d="M11.4302 15.7302L10.9839 15.8868C11.0065 15.7135 11.0367 15.4697 11.0474 15.3078C11.0551 15.1937 11.0861 15.1588 11.095 15.1512C11.098 15.1487 11.1039 15.1433 11.1205 15.1433C11.123 15.1433 11.1256 15.1437 11.1284 15.1437L11.1379 15.145L11.4198 15.1296C11.4318 15.2622 11.4318 15.5533 11.4302 15.7302Z" fill="white"/>
<path d="M10.7091 15.5916C10.6839 15.6587 10.6541 15.849 10.6355 15.9829L10.0764 15.9659C10.108 15.7928 10.1517 15.6165 10.1997 15.4762C10.2482 15.3366 10.3005 15.232 10.3487 15.2026C10.4048 15.1689 10.5283 15.1613 10.6039 15.2259C10.7269 15.3308 10.7609 15.4508 10.7091 15.5916Z" fill="white"/>
<path d="M10.5003 17.3027C10.457 17.3619 10.4089 17.3919 10.3493 17.3983C10.2885 17.4052 10.2411 17.3915 10.2034 17.3562C10.0278 17.1941 10.0421 16.6631 10.0486 16.4079C10.2804 16.355 10.5307 16.3101 10.6493 16.3032C10.6671 16.5169 10.6722 17.0687 10.5003 17.3027Z" fill="white"/>
<path d="M9.77066 15.9507C9.74342 16.0236 9.71699 16.0923 9.69703 16.1533C9.63204 16.1736 9.43328 16.1558 9.23035 16.1111L9.36991 15.2312C9.59914 15.1704 9.86505 15.1509 9.92937 15.219C10.014 15.3089 9.84388 15.759 9.77066 15.9507Z" fill="white"/>
<path d="M9.51768 17.4365C9.40927 17.5702 9.24665 17.6326 9.01984 17.6302C8.86289 17.6276 8.80679 17.568 8.77875 17.5234C8.6528 17.324 8.77605 16.8538 8.89956 16.5535L9.65684 16.5989C9.66452 16.6516 9.67086 16.7158 9.67383 16.7857C9.68219 16.9994 9.65535 17.2656 9.51768 17.4365Z" fill="white"/>
<path d="M15.7757 11.0518C15.0939 10.8587 15.1525 9.86181 15.2093 8.89836C15.2294 8.55748 15.2484 8.23508 15.2329 7.97159C15.1806 7.06977 15.0289 6.08758 14.3036 5.64301C13.5234 5.16594 12.2471 5.27462 11.4596 5.37481C11.459 5.37495 11.4583 5.37535 11.4576 5.37548C11.4572 5.37548 11.4569 5.37548 11.4567 5.37562C11.1682 5.463 10.8984 5.51963 10.6893 5.50857C10.2246 5.48457 9.86311 5.28892 9.54475 5.11726C9.29637 4.98269 9.07968 4.86646 8.87566 4.86646C8.86487 4.86646 8.85355 4.86646 8.84236 4.86686C8.23193 4.90651 7.95132 5.05564 7.69647 5.28312C7.63242 5.33975 7.55421 5.50412 7.29828 6.24157C7.1691 6.61427 7.14524 6.81816 7.12124 7.01637C7.09966 7.19747 7.07768 7.38368 6.9814 7.66146C6.91439 7.8532 6.8649 8.01852 6.81703 8.1779C6.69082 8.60144 6.59104 8.93504 6.29128 9.33175C6.25609 9.37867 6.21254 9.44771 6.1621 9.52632C6.09414 9.63339 6.01 9.76647 5.89903 9.9206C5.82069 10.0291 5.64081 10.4354 5.65065 10.5592C5.66535 10.7563 5.7294 10.8786 5.80275 11.0214C5.8757 11.1622 5.95876 11.3216 5.97387 11.5417L5.97643 11.5774C6.00313 11.9265 5.95337 12.1017 5.28927 12.6948C4.86466 13.0748 4.56301 13.4408 4.35954 13.7094C4.3416 13.7331 4.36493 13.7683 4.3946 13.7659C4.40147 13.7649 4.40835 13.7645 4.41469 13.7645C4.4275 13.7635 4.44017 13.763 4.45285 13.763C4.46552 13.763 4.47833 13.7635 4.49087 13.764C4.50368 13.7645 4.51596 13.7655 4.5285 13.7674C4.68909 13.7857 4.84565 13.8537 4.95864 13.9707C4.97833 13.9911 5.00894 13.9966 5.0351 13.9861C5.14324 13.941 5.26203 13.9485 5.37557 13.9591C5.51581 13.9721 5.65739 14.014 5.75043 14.1045C5.77848 14.1318 5.81853 14.1457 5.85682 14.137C5.96672 14.112 6.08201 14.1143 6.18894 14.1531C6.27335 14.1846 6.34428 14.2342 6.40064 14.2966C6.44002 14.3403 6.50986 14.3487 6.55921 14.3168C6.58996 14.297 6.6238 14.2803 6.66142 14.2676C6.80557 14.2187 6.96509 14.2466 7.10505 14.2969C7.17396 14.3217 7.24623 14.3438 7.3084 14.3853C7.42261 14.4614 7.49232 14.5725 7.53682 14.6967C7.56203 14.7667 7.65629 14.791 7.71346 14.7434C7.81621 14.6579 7.89752 14.6434 7.9795 14.6798C8.0213 14.6987 8.05043 14.7246 8.06998 14.7571C8.1041 14.8136 8.17354 14.8601 8.23705 14.8423C8.46021 14.7802 8.73961 14.8125 8.942 14.9209C9.01347 14.9584 9.08372 15.0157 9.13496 15.1023L9.1351 15.1024C9.13523 15.1028 9.13564 15.1027 9.13564 15.1023L9.14157 15.0639C9.14427 15.0465 9.15654 15.032 9.17339 15.0268L9.22032 15.0124C9.33089 14.9772 9.89426 14.8148 10.1134 15.0455C10.1228 15.055 10.1393 15.0559 10.1484 15.0461C10.1782 15.0133 10.2025 14.9954 10.218 14.9865C10.3607 14.8999 10.6054 14.8945 10.7682 15.0339C10.8009 15.0614 10.8541 15.0515 10.8787 15.0164C10.894 14.995 10.9112 14.976 10.9307 14.9596C10.9878 14.9103 11.0602 14.8867 11.1405 14.8917L11.4499 14.875C11.5277 14.8706 11.7696 14.8542 11.8458 14.8381C11.8516 14.8369 11.8576 14.8359 11.8636 14.8349C11.8958 14.8299 11.9341 14.8217 11.9742 14.8133C12.1243 14.7806 12.2946 14.7438 12.4344 14.8083C12.5687 14.8705 12.5517 15.0236 12.5355 15.1585C12.5292 15.2133 12.5223 15.2704 12.5229 15.3248C12.5238 15.3501 12.5243 15.3756 12.5248 15.4016C12.5268 15.518 12.5292 15.6255 12.5061 15.708V15.7085V15.709L12.5203 15.7729C12.521 15.7753 12.5217 15.7784 12.5225 15.7822C12.5351 15.8407 12.598 15.8733 12.6491 15.8422C12.7569 15.7764 12.8703 15.6909 12.9046 15.6417C12.9072 15.6379 12.9092 15.634 12.9107 15.6297C12.9154 15.6173 12.9242 15.5904 12.9337 15.5343C12.9529 15.4193 12.9743 15.1856 12.9762 14.7111C12.9762 14.686 12.9762 14.6681 12.9767 14.6597C12.9807 14.4836 12.9738 14.3423 12.9669 14.2176C12.9542 13.9603 12.9438 13.7579 13.0715 13.5519C13.1959 13.3514 13.3165 13.2756 13.4325 13.2021C13.5673 13.1176 13.7196 13.0216 13.9759 12.67C14.1016 12.4969 14.1171 12.427 14.1294 12.3712C14.1573 12.2406 14.2004 12.1619 14.3945 12.0152C14.5525 11.8959 15.0332 11.5316 15.6818 11.6406C15.8944 11.6768 16.2392 11.7902 16.5794 11.9242C16.5794 11.9242 16.5797 11.9243 16.58 11.9243H16.5804C16.5931 11.9281 16.6061 11.9326 16.6181 11.9389C16.6225 11.9412 16.6269 11.9434 16.6315 11.9452C16.9354 12.0666 17.2311 12.2021 17.4206 12.3104C17.4647 12.3356 17.5212 12.3211 17.5522 12.2807C17.6142 12.2002 17.6819 12.1536 17.7549 12.1098C17.7822 12.0932 17.8033 12.0805 17.8234 12.0634C17.8302 12.0576 17.837 12.0519 17.8436 12.0465C17.9002 12.0007 17.9001 11.9026 17.8352 11.8692C16.9211 11.3966 16.0602 11.1327 15.7757 11.0518ZM9.27924 11.2616C9.06835 12.1845 7.63876 13.1989 6.98895 13.1989H6.97614C6.96589 13.1983 6.95457 13.1974 6.94243 13.1954C6.93016 13.1935 6.91695 13.1905 6.90292 13.1866C6.89605 13.1846 6.88863 13.1822 6.88135 13.1803C6.76337 13.143 6.60007 13.0524 6.47642 12.9308C6.39133 12.8473 6.32432 12.7488 6.30328 12.6426C6.29937 12.624 6.29546 12.6056 6.29142 12.587C6.25636 12.43 6.21267 12.2339 6.35115 11.913C6.3703 11.87 6.38729 11.8298 6.40293 11.7931C6.40792 11.781 6.41332 11.7687 6.41817 11.757C6.43287 11.7224 6.44595 11.6905 6.45781 11.6617C6.47736 11.6129 6.49341 11.5713 6.50662 11.536C6.51202 11.5222 6.51701 11.509 6.52132 11.4969C6.56097 11.3859 6.56582 11.3444 6.57121 11.3014C6.5762 11.2677 6.58106 11.2264 6.59481 11.1678C6.6354 10.9946 6.65644 10.8479 6.67504 10.7172C6.70835 10.4823 6.73721 10.2795 6.86382 10.0932C6.8854 10.0615 6.90926 10.0325 6.93623 10.0072C6.94553 9.9984 6.95443 9.99004 6.96401 9.98168C6.97385 9.97332 6.9837 9.96604 6.99327 9.95862C7.02401 9.93705 7.05691 9.91804 7.09251 9.90186C7.10478 9.89646 7.11705 9.89107 7.12919 9.88675C7.15427 9.87745 7.18056 9.86949 7.20807 9.86261C7.32444 9.83443 7.46184 9.82998 7.61974 9.84994C7.79248 9.86369 7.9524 9.89633 8.09412 9.93597C8.21251 9.9686 8.31823 10.0069 8.40763 10.0425C8.41693 10.046 8.42583 10.0494 8.43459 10.0533C8.45172 10.0602 8.4683 10.067 8.48448 10.0745C8.50903 10.0847 8.53141 10.0945 8.55244 10.1037C8.58036 10.1164 8.60584 10.1277 8.62836 10.1378L8.6494 10.1477C8.74918 10.1931 8.83494 10.243 8.90816 10.2953C8.94429 10.3219 8.97814 10.3487 9.00835 10.376C9.01873 10.3849 9.02857 10.3942 9.03761 10.4039C9.04745 10.4133 9.05676 10.4226 9.06552 10.4319C9.34019 10.7212 9.32657 11.0557 9.27924 11.2616ZM9.94172 7.76367L9.91394 7.93101C9.8499 8.30803 9.70265 8.82501 9.15977 8.95809C8.63753 9.08579 8.51375 9.11303 8.14199 9.12975C8.13376 9.13069 8.12486 9.13069 8.1161 9.13069C7.84466 9.13069 7.32228 8.95958 7.22978 8.53402C7.17059 8.26015 7.29141 8.06167 7.49043 7.73252C7.5236 7.67818 7.55947 7.61993 7.59749 7.55493C7.86057 7.11171 7.96427 6.79092 8.0476 6.53364C8.12864 6.2823 8.1962 6.0745 8.36987 5.90231C8.40992 5.86226 8.45536 5.82451 8.50822 5.78837C8.54193 5.76531 8.57712 5.74482 8.61434 5.72567C8.66369 5.70113 8.71547 5.67982 8.76981 5.66256C8.89063 5.624 9.02116 5.60445 9.15182 5.60445C9.40505 5.60445 9.65802 5.67726 9.83843 5.82208C9.91961 5.88707 10.035 6.01706 10.102 6.40055C10.1366 6.5981 10.0778 6.96109 9.94172 7.76367ZM13.8148 8.83674C13.6279 9.15753 13.5257 9.33417 13.3643 9.46659C13.044 9.72966 12.6704 9.79627 12.3627 9.79627C12.1417 9.79627 11.954 9.76216 11.8434 9.74193C11.5254 9.68382 10.9338 9.57621 10.7366 9.10912C10.698 9.01675 10.6976 8.9581 10.6976 8.88367C10.6976 8.81018 10.6976 8.68666 10.6634 8.39257L10.6615 8.37302C10.6457 8.23993 10.6282 8.08931 10.6664 7.89608L10.6708 7.87302C10.7823 7.30588 10.8125 7.21918 10.8376 7.17023C10.8953 7.05872 11.0322 7.01475 11.1437 7.07206C11.2517 7.12829 11.2967 7.25922 11.2459 7.36925C11.2346 7.40148 11.2029 7.5223 11.1167 7.96108L11.1123 7.98413C11.0877 8.10792 11.0985 8.20177 11.1128 8.3207L11.1147 8.34079C11.1518 8.6601 11.1518 8.80478 11.1518 8.88312C11.1518 8.89701 11.1518 8.91212 11.1523 8.92115C11.1525 8.92466 11.1542 8.92924 11.1553 8.93261C11.1922 9.02026 11.2756 9.08673 11.3771 9.13784C11.4402 9.16953 11.5062 9.10925 11.4921 9.04008C11.3911 8.54022 11.3967 7.95716 11.5876 7.59687C11.6502 7.47726 11.7659 7.28148 11.8758 7.09876C11.8762 7.09823 11.8764 7.09782 11.8767 7.09728C11.877 7.09674 11.8774 7.09634 11.8776 7.0958C11.8888 7.07732 11.8999 7.05912 11.911 7.04078C11.9203 7.025 11.9296 7.01003 11.9382 6.99534C11.9866 6.91497 12.032 6.84122 12.0684 6.78256C12.0733 6.7742 12.0782 6.76584 12.0831 6.75802C12.0865 6.75209 12.09 6.74669 12.0934 6.74184C12.1012 6.72903 12.1081 6.71729 12.1146 6.70718C12.1174 6.70233 12.1204 6.69788 12.1228 6.69343C12.1243 6.69154 12.1253 6.68952 12.1263 6.68803C12.1297 6.6821 12.1332 6.67671 12.1361 6.67239C12.1419 6.66309 12.1464 6.65621 12.1488 6.65176C12.1491 6.65136 12.1492 6.65109 12.1494 6.65068C12.1499 6.64974 12.151 6.64826 12.1515 6.64731C12.1519 6.64664 12.152 6.6465 12.1525 6.64583C12.1903 6.59068 12.2278 6.53823 12.2642 6.48887C12.3137 6.42186 12.2564 6.33408 12.1793 6.36563C11.9937 6.44127 11.867 6.53795 11.8412 6.55832C11.7429 6.63666 11.6 6.62048 11.5223 6.52218C11.4445 6.42402 11.4607 6.28068 11.559 6.20233C11.6759 6.11051 12.2955 5.65852 13.0376 5.87076C13.5722 6.02286 13.8524 6.4313 13.958 6.58488C14.0431 6.70961 14.3039 7.08824 14.2955 7.61682C14.2893 8.02 14.1211 8.31005 13.8148 8.83674Z" fill="white"/>
<path d="M8.99573 6.07214C8.9577 6.16411 8.91226 6.27805 8.86344 6.40183C8.74937 6.68851 8.62006 7.0132 8.55789 7.13092C8.45069 7.3344 8.36723 7.46277 8.30062 7.56619C8.2243 7.68498 8.16348 7.77897 8.11764 7.91004C8.03714 8.13927 8.02271 8.39547 8.07503 8.67405C7.9329 8.65841 7.7003 8.56051 7.67401 8.43713C7.65432 8.34531 7.71136 8.24485 7.8795 7.96829C7.91321 7.91314 7.94935 7.85314 7.98886 7.78639C8.27783 7.29975 8.39474 6.93769 8.48077 6.673C8.57354 6.38498 8.61736 6.26416 8.76501 6.1633C8.83108 6.11731 8.91145 6.08805 8.99573 6.07214Z" fill="white"/>
<path d="M8.71345 16.2775C8.55596 16.5992 8.3599 16.8962 8.23773 17.0433C8.1366 16.7698 7.96077 16.1432 8.00715 15.639C8.0085 15.6245 8.01012 15.61 8.01228 15.596C8.03088 15.4403 8.07228 15.2975 8.1459 15.183C8.19445 15.1077 8.32888 15.0618 8.48152 15.0618C8.59425 15.0618 8.71682 15.0864 8.8224 15.1431H8.82322C8.87971 15.1733 8.95671 15.2345 8.9648 15.4124C8.97639 15.6526 8.86191 15.9756 8.71345 16.2775Z" fill="white"/>
<path d="M17.3426 12.6722C17.3548 12.6821 17.3625 12.6969 17.3555 12.7109C17.3084 12.8054 17.252 12.8718 17.1854 12.9498C17.1051 13.0456 17.0131 13.1541 16.9276 13.3234C16.8058 13.5632 16.7669 13.7821 16.7464 14.3424C16.7222 15.0005 16.7477 15.3703 16.7669 15.6398C16.7851 15.9002 16.7963 16.0571 16.7499 16.311C16.6563 16.8233 16.4372 17.1624 16.1597 17.5916C15.8125 18.1284 15.4534 18.6833 14.8587 18.8602C14.8034 18.8772 14.8016 18.8772 14.6465 18.8778C14.5115 18.8778 14.287 18.8783 13.862 18.8939C13.0851 18.9221 12.6955 18.9362 12.362 19.0002C12.0122 19.0679 11.8298 19.1423 11.6529 19.2138C11.4932 19.2784 11.3423 19.3397 11.0531 19.3992C10.8806 19.434 10.6229 19.472 9.74485 19.4734C8.83224 19.475 8.28128 19.4754 7.55381 19.3925C6.55571 19.2785 6.05463 19.2215 5.72184 19.0438C4.93693 18.6251 4.60549 17.8721 4.05722 16.6247C4.05628 16.6225 4.05533 16.6204 4.05439 16.6181C4.04764 16.6026 4.06653 16.5876 4.08109 16.5962C4.10711 16.6124 4.13422 16.6258 4.1628 16.6353C4.1868 16.6438 4.21175 16.6503 4.23696 16.6545C4.28712 16.663 4.33945 16.6635 4.39257 16.6545C4.40188 16.6529 4.41037 16.6507 4.4186 16.6473C4.42021 16.6467 4.4217 16.6459 4.42332 16.6452C4.43262 16.6406 4.44408 16.6444 4.44799 16.654C4.48291 16.7501 4.53834 16.8357 4.63138 16.8851C4.72455 16.9336 4.83054 16.9374 4.93423 16.9366C5.04103 16.935 5.14863 16.9289 5.25502 16.9161C5.31139 16.9102 5.36909 16.9378 5.39067 16.9902C5.48816 17.2265 5.60885 17.3975 5.79021 17.4227C5.80005 17.424 5.81286 17.4257 5.82904 17.4257C5.8699 17.4257 5.933 17.4138 6.022 17.3526C6.0909 17.3054 6.19756 17.3331 6.24705 17.4004C6.29236 17.4618 6.34629 17.5059 6.39268 17.5431C6.57944 17.7348 7.03331 17.8268 7.41451 17.8268C7.62244 17.8268 7.80893 17.7994 7.91869 17.746C8.07564 17.6699 8.07564 17.5529 8.06796 17.5056C8.05461 17.4208 8.04247 17.3367 8.03222 17.2533C8.03101 17.2433 8.04611 17.2394 8.05016 17.2487C8.07295 17.2985 8.10086 17.3605 8.17516 17.3725C8.18325 17.3733 8.19228 17.3751 8.20253 17.3751C8.30878 17.3751 8.4741 17.4097 8.50255 17.5121C8.51711 17.5643 8.53761 17.6131 8.56552 17.6572C8.6293 17.7582 8.75916 17.8784 9.01657 17.8828H9.03653C9.3321 17.8828 9.56025 17.7861 9.71411 17.595C9.72408 17.5827 9.73365 17.5701 9.74282 17.5573C9.79811 17.4793 9.96235 17.4759 10.0326 17.5407C10.1118 17.6139 10.2114 17.6516 10.3224 17.6516C10.3402 17.6516 10.3582 17.6508 10.3769 17.6487C10.5091 17.6347 10.6236 17.5645 10.7091 17.4449C10.7651 17.3669 10.8059 17.2709 10.8357 17.167C10.8445 17.1364 10.8866 17.1274 10.91 17.1488C10.9665 17.2011 11.0571 17.2564 11.1878 17.2564C11.2196 17.2564 11.2541 17.2531 11.2908 17.2454C11.5475 17.1937 11.6754 16.9812 11.7359 16.7413C11.7379 16.7332 11.7495 16.7311 11.7549 16.7374C11.8199 16.8166 11.9399 16.908 12.1488 16.908C12.1595 16.908 12.1705 16.908 12.1814 16.9075C12.292 16.9023 12.3852 16.8538 12.4525 16.7669C12.5343 16.6603 12.5665 16.5021 12.574 16.343C12.5761 16.2966 12.6061 16.2559 12.6489 16.238C12.8693 16.1459 13.1361 15.9475 13.2143 15.8124C13.217 15.8077 13.2197 15.8027 13.2224 15.7976C13.2404 15.7628 13.2711 15.7353 13.3095 15.728C13.4802 15.6956 13.5547 15.6634 13.6224 15.634C13.6775 15.6097 13.7219 15.5906 13.8459 15.5713C14.833 15.4207 15.0257 15.3875 15.2393 15.2451C15.5587 15.0321 15.5749 14.7388 15.5906 14.4551C15.6041 14.2152 15.6195 13.943 15.8059 13.6235C15.8735 13.5069 15.9516 13.3614 16.0347 13.2074C16.18 12.9378 16.3831 12.5604 16.5285 12.3626C16.5558 12.3253 16.6053 12.3137 16.6479 12.3317C16.9891 12.4767 17.2797 12.6218 17.3426 12.6722Z" fill="white"/>
<path d="M7.75724 15.6091C7.71814 15.9504 7.69427 16.4063 7.74955 17.0001C7.76519 17.1678 7.78704 17.3417 7.81414 17.5179C7.76735 17.5434 7.62766 17.5792 7.37928 17.5752C7.02235 17.5681 6.67487 17.4783 6.5705 17.3654L6.55431 17.3509C6.46748 17.2812 6.41057 17.2352 6.40248 17.1106C6.39979 17.0685 6.41786 17.0268 6.45642 16.9679C6.47773 16.9347 6.50577 16.8965 6.54056 16.8493C6.60057 16.7688 6.675 16.6684 6.75119 16.539C6.97462 16.1616 7.0593 16.0451 7.1669 15.8978C7.17539 15.8859 7.18443 15.874 7.19373 15.8617C7.25711 15.7748 7.33154 15.671 7.44346 15.5004C7.5268 15.3738 7.5961 15.2746 7.65328 15.1966C7.74861 15.0671 7.81104 14.9967 7.85109 14.9584C7.84515 15.0172 7.83194 15.0997 7.81913 15.1759C7.80025 15.293 7.77639 15.4364 7.75724 15.6091Z" fill="white"/>
<path d="M7.59365 10.3035C7.5915 10.3065 7.58894 10.3095 7.58678 10.3126C7.54039 10.3769 7.48726 10.4496 7.42389 10.5912C7.25372 10.9694 7.25048 11.1835 7.24778 11.3557C7.24617 11.4459 7.24522 11.5178 7.22055 11.6017C7.20356 11.657 7.17592 11.7203 7.14396 11.7934C7.04364 12.0232 6.91257 12.3244 6.97136 12.7298C6.89005 12.6906 6.76572 12.6012 6.74846 12.5536C6.74415 12.5315 6.73943 12.5098 6.73444 12.4881C6.70626 12.3616 6.68765 12.2792 6.76802 12.0941C6.97945 11.6065 7.00548 11.491 7.02206 11.3581C7.02543 11.3291 7.02894 11.3066 7.03743 11.27C7.08206 11.0777 7.10539 10.913 7.12454 10.7808C7.15299 10.58 7.17214 10.4471 7.23983 10.3472C7.26451 10.3103 7.33435 10.2911 7.43427 10.2911C7.47378 10.2911 7.51841 10.2941 7.56709 10.301L7.57842 10.3018C7.58341 10.3023 7.58867 10.3027 7.59365 10.3035Z" fill="white"/>
<path d="M7.31483 15.1134C7.30336 14.9964 7.28287 14.8793 7.24039 14.7691C7.23743 14.7636 7.22475 14.7354 7.22206 14.73C7.21437 14.716 7.2056 14.7028 7.19738 14.6889C7.19684 14.6883 7.19657 14.6883 7.19657 14.6879C7.19603 14.6871 7.19576 14.6871 7.19576 14.6867C7.19104 14.6816 7.18672 14.6766 7.18214 14.6717C7.17526 14.6649 7.16785 14.6583 7.16043 14.6522C7.15908 14.6506 7.15787 14.6492 7.15666 14.6487C7.15328 14.6459 7.14816 14.6418 7.14263 14.6386C7.1336 14.6339 7.1251 14.6287 7.11634 14.6243C7.11364 14.6225 7.1073 14.62 7.10137 14.6178C7.10137 14.6178 7.10097 14.6178 7.10097 14.6174C7.09962 14.6169 7.09827 14.6166 7.09719 14.6161C7.09584 14.6152 7.09503 14.6147 7.09422 14.6144C7.09287 14.6139 7.09207 14.6136 7.09126 14.6136C7.09045 14.6136 7.09045 14.6131 7.09045 14.6131C7.08775 14.6117 7.08614 14.6115 7.08492 14.6109C7.01683 14.586 6.94779 14.5586 6.87551 14.548C6.87511 14.548 6.87389 14.5476 6.87295 14.5476H6.87133C6.86324 14.5476 6.84665 14.5459 6.84585 14.5459C6.83573 14.5454 6.82589 14.5454 6.81604 14.5459C6.81133 14.5459 6.80674 14.5459 6.80243 14.5463H6.79865C6.79703 14.5463 6.79501 14.5469 6.79285 14.5469C6.79204 14.5477 6.7907 14.5477 6.79016 14.5477C6.78975 14.5477 6.78935 14.5477 6.78935 14.5477C6.77317 14.5524 6.75618 14.5567 6.73999 14.5617C6.73312 14.5652 6.72557 14.5686 6.71869 14.5729C6.71289 14.5763 6.70682 14.5806 6.70089 14.5836C6.70048 14.584 6.69968 14.5848 6.69873 14.5848L6.69752 14.5861C6.68983 14.5938 6.68174 14.601 6.67405 14.6086C6.67149 14.6113 6.66435 14.6201 6.65922 14.6266C6.65788 14.6274 6.65707 14.6282 6.65707 14.629C6.65666 14.6294 6.65666 14.6294 6.65626 14.6298C6.65585 14.6302 6.65585 14.6306 6.65491 14.631C6.6545 14.6316 6.65451 14.632 6.6541 14.632C6.65208 14.6356 6.64992 14.6387 6.64911 14.6405C6.62174 14.6829 6.5941 14.7251 6.56564 14.7671C6.50011 14.8675 6.43296 14.9675 6.36486 15.0667C6.3027 15.1565 6.24067 15.2463 6.17892 15.336C6.1444 15.3863 6.11042 15.4359 6.07644 15.4862C6.07051 15.4947 6.06498 15.5032 6.05945 15.5117C6.09977 15.5194 6.14022 15.5273 6.18108 15.535C6.2725 15.5517 6.36352 15.5678 6.45629 15.5804C6.64722 15.6065 6.8414 15.6185 7.0349 15.6116C7.0442 15.6111 7.0535 15.6116 7.06213 15.6132C7.10865 15.5469 7.1634 15.4677 7.23324 15.3617C7.27194 15.3025 7.30889 15.2478 7.34368 15.1971C7.32804 15.1728 7.3182 15.1438 7.31483 15.1134Z" fill="white"/>
<path d="M6.63468 15.9024C6.61823 16.0496 6.45346 16.4307 6.19645 16.7936C5.98124 17.097 5.85058 17.1706 5.82455 17.1731C5.72073 17.1587 5.61825 16.9017 5.53694 16.6469C5.5043 16.5436 5.47477 16.4405 5.4501 16.3542C5.39441 16.1603 5.3843 15.9002 5.394 15.7369C5.6111 15.8572 5.99216 15.8896 6.52749 15.8917H6.5291C6.56443 15.8955 6.59935 15.8994 6.63468 15.9024Z" fill="white"/>
<path d="M6.25399 14.6901C6.25399 14.6906 6.25399 14.6906 6.25399 14.6909C6.25143 14.6944 6.24927 14.6982 6.24685 14.7015C6.15488 14.8368 6.06225 14.9714 5.96948 15.1061C5.92148 15.1755 5.87388 15.2448 5.82655 15.3147C5.80066 15.3526 5.76573 15.3942 5.73553 15.4393C5.65934 15.4213 5.58329 15.4039 5.50791 15.3826C5.44629 15.3648 5.38548 15.3457 5.32574 15.3218C5.31374 15.3175 5.30228 15.3128 5.29122 15.3074C5.28138 15.2874 5.26736 15.2695 5.25037 15.2559C5.25077 15.2555 5.25077 15.2543 5.25117 15.2537C5.27288 15.2095 5.295 15.1649 5.31671 15.1206C5.35797 15.0395 5.39937 14.9587 5.44521 14.8803C5.52706 14.739 5.62563 14.5953 5.76398 14.5037C5.77085 14.4986 5.77841 14.4939 5.78569 14.4893C5.83936 14.4556 5.89302 14.4319 5.95882 14.4238C5.96651 14.423 6.0129 14.4232 6.03461 14.4251C6.03838 14.4251 6.04148 14.4255 6.04364 14.4255H6.04404C6.04566 14.4261 6.04876 14.4269 6.05335 14.4285C6.06953 14.4336 6.08585 14.437 6.10203 14.4425C6.10756 14.4452 6.11255 14.4476 6.11821 14.4506C6.13223 14.4591 6.14666 14.4668 6.15987 14.4774C6.13857 14.4613 6.18927 14.5136 6.18927 14.5098C6.23012 14.5663 6.24253 14.6136 6.25399 14.6901Z" fill="white"/>
<path d="M5.5258 14.3067C5.35563 14.4466 5.23184 14.633 5.12855 14.8269C5.07057 14.9345 5.01825 15.0442 4.96378 15.1536C4.95825 15.1648 4.95272 15.1754 4.94638 15.1864C4.89487 15.1752 4.84336 15.1603 4.79307 15.1443C4.73954 15.1273 4.68627 15.1078 4.6353 15.084C4.61197 15.0728 4.58851 15.0614 4.56519 15.0491C4.61616 14.9525 4.67697 14.8598 4.73495 14.7697C4.81667 14.6424 4.90512 14.5174 5.00126 14.4C5.0374 14.3553 5.0757 14.3064 5.1264 14.277C5.17817 14.2464 5.24088 14.2537 5.30034 14.257C5.36331 14.2609 5.431 14.2626 5.49047 14.2864C5.50274 14.2917 5.51609 14.2999 5.5258 14.3067Z" fill="white"/>
<path d="M5.25558 16.5903C5.24709 16.5974 5.23994 16.6051 5.2336 16.6142C5.22767 16.6158 5.2216 16.6171 5.21782 16.6181C5.17697 16.6223 5.1353 16.6252 5.09404 16.6279C5.01489 16.6329 4.93452 16.6364 4.85456 16.6335C4.80993 16.6318 4.76948 16.625 4.75114 16.5965C4.72174 16.5519 4.71284 16.4739 4.70232 16.4147C4.65001 16.1242 4.64313 15.8214 4.68021 15.5273C4.83204 15.5818 4.98832 15.624 5.14852 15.6503C5.114 15.9154 5.17279 16.3046 5.20717 16.4238C5.22322 16.4792 5.2394 16.5353 5.25558 16.5903Z" fill="white"/>
<path d="M4.76711 14.2098C4.63267 14.3748 4.51023 14.5505 4.40034 14.7326C4.35597 14.8066 4.30581 14.8832 4.26887 14.9623C4.21561 14.9475 4.1676 14.9262 4.11663 14.8946C4.07753 14.8704 4.0395 14.8435 4.00255 14.8155C3.99325 14.8078 3.96776 14.7878 3.95185 14.775C3.94821 14.7722 3.94471 14.7692 3.9408 14.7671C3.95307 14.7323 3.97559 14.6935 3.98799 14.6674C4.01617 14.6058 4.04759 14.5453 4.08049 14.4863C4.14293 14.3758 4.21277 14.2676 4.29192 14.1681C4.32132 14.1314 4.34923 14.0842 4.39494 14.0706C4.43661 14.0588 4.49149 14.0643 4.52507 14.0701C4.62458 14.0894 4.70252 14.1345 4.76711 14.2098Z" fill="white"/>
<path d="M3.7312 14.9262C3.73309 14.9192 3.74225 14.9183 3.74643 14.9242C3.78176 14.9745 3.83098 15.0182 3.88384 15.0593C3.90744 15.0772 3.93076 15.095 3.95463 15.1119C3.9576 15.1141 3.95895 15.1177 3.95814 15.1213C3.90245 15.352 3.86442 15.5971 3.8651 15.8384C3.8651 15.8491 3.84905 15.8512 3.84662 15.8408C3.77853 15.5598 3.68603 15.0914 3.7312 14.9262Z" fill="white"/>
<path d="M4.38938 15.428C4.36215 15.6287 4.34907 15.8301 4.35783 16.0325C4.36215 16.1434 4.37401 16.2537 4.38898 16.3634C4.38898 16.3642 4.38898 16.3651 4.38938 16.3655V16.3661C4.36552 16.3605 4.34057 16.3597 4.31509 16.3634C4.32008 16.3617 4.307 16.3626 4.30147 16.3626H4.29985C4.29607 16.3622 4.29054 16.3617 4.28866 16.3613C4.26061 16.3545 4.25818 16.3515 4.23593 16.3375C4.20694 16.3187 4.17634 16.2846 4.15598 16.2498C4.1019 16.1562 4.09004 16.0426 4.08572 15.9366C4.07777 15.7287 4.09557 15.521 4.1344 15.3173C4.16757 15.3307 4.19643 15.3432 4.24456 15.3639C4.29216 15.3847 4.34152 15.4052 4.38966 15.4274V15.428H4.38938Z" fill="white"/>
<g opacity="0.8" filter="url(#filter0_i_2227_2809)">
<path d="M9.69865 25.9347C8.7824 25.9347 7.91335 25.8769 7.18413 25.8201L6.98308 25.8044L6.7823 25.7765C6.69451 25.7641 6.57518 25.7513 6.46003 25.7388C5.75844 25.6625 4.45371 25.5203 3.01347 24.844L2.78976 24.7385L2.58116 24.6218C-0.18687 23.0701 -1.22286 20.7351 -1.7807 19.4797C-1.81616 19.4 -1.85931 19.3029 -1.89976 19.2135C-2.18145 18.6372 -2.35944 18.1177 -2.51046 17.6421L-2.54404 17.5358L-2.57195 17.4327C-2.97378 16.0047 -3.07531 14.7716 -2.89126 13.5522C-2.70679 12.3278 -2.25318 11.2139 -1.4653 10.0479L-1.05673 9.38071C-0.973806 9.246 -0.915284 9.09768 -0.883731 8.94261C-0.572246 7.39881 0.134594 6.30524 0.481946 5.783C0.577549 5.15072 0.735178 4.52951 0.952543 3.92825L0.984908 3.83709L1.01956 3.74823C1.02522 3.73259 1.03251 3.71048 1.04586 3.67016C1.20187 3.20024 1.56769 2.10047 2.50431 0.945682L2.85611 0.519581L3.21452 0.195826C4.13522 -0.640868 5.23215 -1.26006 6.42416 -1.61604C7.08973 -1.81453 7.77581 -1.93589 8.46903 -1.97769L8.53605 -1.98268L8.63705 -1.9874C8.75692 -1.99306 8.87639 -1.99576 8.99289 -1.99576C9.42547 -1.99657 9.85736 -1.96016 10.2836 -1.88707C10.55 -1.84217 10.8236 -1.87346 11.073 -1.97728C11.812 -2.28567 12.589 -2.49427 13.3831 -2.59756C13.4494 -2.60699 13.5073 -2.61428 13.5528 -2.62021C13.6781 -2.63585 13.8771 -2.65931 14.1177 -2.68224C14.537 -2.72229 15.1801 -2.77002 15.8772 -2.77002C17.2386 -2.77002 18.4105 -2.59365 19.4596 -2.23092L19.5489 -2.19991L19.6361 -2.16714C21.9512 -1.29229 23.1297 -0.0700799 23.9773 1.00812L24.0175 1.05949L24.1341 1.16318C24.8998 1.76228 25.5509 2.49461 26.0562 3.32524L26.2142 3.58521L26.3476 3.85786C27.48 6.16932 27.1201 8.3036 26.9844 9.1055L26.9772 9.14838C26.8797 9.73993 26.7245 10.3206 26.5138 10.8819C26.4363 11.4232 26.3089 11.9561 26.133 12.4737C25.8325 13.394 25.389 14.2612 24.8189 15.0437C24.4907 15.5079 24.12 15.9408 23.7117 16.3365C23.5673 16.4761 23.4737 16.6599 23.4458 16.8586C23.4281 16.9811 23.408 17.1022 23.3851 17.222C23.0531 19.0026 22.2744 20.2418 21.9566 20.7353L20.9956 22.1156C19.8382 23.5574 18.465 24.5085 16.8033 25.0195L16.4007 25.1457L15.9658 25.2214C15.4684 25.3092 14.9642 25.3529 14.4591 25.3518C14.3894 25.3518 14.3193 25.3518 14.2415 25.3498H14.2191L14.1333 25.3552L14.0414 25.3585H14.0388C13.8463 25.365 13.6553 25.3964 13.4709 25.4521C12.3975 25.7804 11.1834 25.9347 9.69865 25.9347Z" stroke="url(#paint1_linear_2227_2809)" stroke-width="0.36171" stroke-miterlimit="10"/>
<path d="M9.69862 24.9857C8.82066 24.9857 7.97858 24.9297 7.27079 24.8739L7.10305 24.8609L6.93531 24.8377C6.83067 24.8232 6.70298 24.8098 6.57959 24.7958C5.89824 24.7218 4.75909 24.5978 3.4874 24.0014L3.30064 23.9137L3.12697 23.816C0.684309 22.446 -0.219401 20.4118 -0.759578 19.1961C-0.798142 19.1094 -0.84547 19.0029 -0.889564 18.9062C-1.14118 18.39 -1.30623 17.9132 -1.44552 17.4746L-1.47343 17.3861L-1.4977 17.3001C-1.85503 16.03 -1.9474 14.9463 -1.78802 13.8888C-1.62863 12.8313 -1.22707 11.8541 -0.526705 10.824L-0.00324854 9.96927C0.0893878 9.81784 0.152897 9.65036 0.184046 9.47574C0.444695 8.02363 1.13064 6.99411 1.44239 6.52554L1.48176 6.46621L1.49633 6.44274C1.5028 6.42845 1.50887 6.41483 1.5148 6.4C1.53381 6.33824 1.55256 6.27837 1.57076 6.22133C1.65274 5.6256 1.79743 5.04039 2.00266 4.47514L2.0307 4.39908L2.06064 4.32276C2.07008 4.29849 2.07898 4.27219 2.10527 4.19331C2.25373 3.74591 2.56279 2.81712 3.37117 1.8205L3.66445 1.46546L3.96218 1.19618C4.76058 0.470735 5.71162 -0.0660692 6.74518 -0.374722C7.33201 -0.548938 7.93678 -0.655193 8.54775 -0.691465L8.6037 -0.695918L8.68758 -0.699827C8.78965 -0.704682 8.89146 -0.706839 8.9907 -0.706839C9.42907 -0.707648 9.86623 -0.83386 10.2957 -0.745673C10.627 -0.677173 10.9715 -0.713848 11.281 -0.850578C11.8592 -1.10556 12.6376 -1.20737 13.5288 -1.31835C13.5923 -1.32765 13.6476 -1.33453 13.6906 -1.33992C13.8078 -1.35475 13.9952 -1.37687 14.2219 -1.39831C14.6162 -1.43606 15.223 -1.48218 15.8753 -1.48218C17.1103 -1.48218 18.1625 -1.3259 19.0922 -1.00444L19.1665 -0.978679L19.2392 -0.950631C21.2914 -0.175291 22.3055 0.862588 23.0957 1.86891C23.1395 1.92487 23.1846 1.98218 23.2013 2.002L23.22 2.01872L23.37 2.15221L23.3901 2.17285C24.0728 2.69576 24.652 3.34125 25.0985 4.07614L25.23 4.29283L25.3418 4.5199C26.3159 6.50815 26.0106 8.31705 25.8803 9.08955L25.8733 9.13068C25.7808 9.69189 25.6296 10.2419 25.422 10.7714C25.3566 11.2868 25.2393 11.7942 25.0719 12.2861C24.8062 13.1003 24.4139 13.8678 23.9096 14.5601C23.5682 15.0455 23.1734 15.4909 22.7327 15.8883C22.5283 16.0719 22.3992 16.3249 22.3707 16.5982C22.3493 16.7995 22.3206 16.9952 22.2842 17.1873C21.9915 18.7591 21.3073 19.8462 20.994 20.3329L20.2156 21.4645C19.1811 22.7938 17.9553 23.6631 16.4702 24.1209L16.1348 24.226L15.7712 24.2889C15.3374 24.3655 14.8976 24.4035 14.4571 24.4027C14.393 24.4027 14.3276 24.4027 14.2572 24.401H14.2373H14.1956C14.1956 24.401 14.1817 24.401 14.1531 24.403L14.0763 24.4077L13.9989 24.4106L13.8442 24.4164C13.6398 24.4236 13.4374 24.4588 13.2424 24.521C12.2537 24.8367 11.1112 24.9857 9.69862 24.9857Z" stroke="url(#paint2_linear_2227_2809)" stroke-width="0.36171" stroke-miterlimit="10"/>
<path d="M9.69883 23.8678C8.85998 23.8678 8.04405 23.8133 7.3573 23.7599L7.2234 23.7496L7.08978 23.7311C6.96869 23.7144 6.8325 23.6995 6.70076 23.685C6.04961 23.6142 5.06621 23.5071 3.96347 22.9899L3.8138 22.9197L3.67396 22.8417C1.55573 21.6541 0.777832 19.9024 0.262736 18.7431C0.218913 18.6439 0.169155 18.532 0.123039 18.4283C-0.100664 17.9733 -0.250067 17.5394 -0.377223 17.1376L-0.399607 17.0672L-0.41916 16.998C-0.732127 15.8864 -0.814785 14.9517 -0.680078 14.0571C-0.543349 13.15 -0.187096 12.3046 0.440323 11.3957L0.515024 11.2879L0.595794 11.1842C0.646629 11.1193 0.695579 11.0553 0.743717 10.9926L1.05857 10.4152C1.16186 10.2265 1.23158 10.0213 1.26461 9.8088C1.46485 8.51337 2.0889 7.57744 2.37692 7.14581L2.37827 7.14351C2.39485 7.11883 2.41603 7.08755 2.42695 7.07029L2.48844 6.97213C2.51257 6.91954 2.5444 6.84969 2.57231 6.77634C2.60036 6.68883 2.63366 6.58068 2.66993 6.46876C2.73816 5.91699 2.86896 5.37466 3.05976 4.85241L3.08147 4.79147L3.10534 4.72984C3.12543 4.67874 3.14026 4.63424 3.16938 4.54673C3.30719 4.13263 3.56272 3.36403 4.24246 2.52545L4.47762 2.24107L4.71508 2.02667C5.39077 1.4126 6.19578 0.958048 7.07077 0.696859C7.57858 0.546106 8.10217 0.454684 8.63102 0.42448L8.67565 0.42111L8.74361 0.418007C8.82749 0.414096 8.91136 0.412209 8.99523 0.412209C9.45005 0.411535 9.90298 0.469112 10.343 0.583592C10.724 0.680004 11.1269 0.637396 11.4793 0.463585C12.0433 0.189856 12.7978 -0.100595 13.6815 -0.209143C13.7422 -0.217772 13.7934 -0.224517 13.8351 -0.229775C13.945 -0.243529 14.12 -0.264157 14.3325 -0.285732C14.7024 -0.321195 15.2712 -0.363403 15.8796 -0.363403C16.9882 -0.363403 17.9207 -0.227347 18.7316 0.0528542L18.7912 0.0736187L18.8493 0.0953297C20.7342 0.807834 21.578 1.74094 22.2209 2.5593C22.3626 2.73958 22.3841 2.76763 22.4814 2.85406L22.6014 2.96085L22.6481 3.00859C22.9582 3.24888 23.5924 3.74347 24.1474 4.65838L24.2527 4.83165L24.3417 5.01315C25.1576 6.67817 24.9037 8.18193 24.7818 8.90482L24.7751 8.94473C24.6879 9.47466 24.5402 9.99299 24.335 10.4893L24.3294 10.5349C24.2752 11.0097 24.1703 11.4773 24.0165 11.9299C23.7858 12.6385 23.4446 13.3062 23.0057 13.9084C22.6385 14.4347 22.1972 14.905 21.6954 15.3051C21.5761 15.3997 21.4783 15.5188 21.4088 15.6543C21.3392 15.79 21.2995 15.9388 21.2923 16.0911C21.2786 16.3898 21.2443 16.6873 21.1894 16.9813C20.936 18.3441 20.3411 19.289 20.0374 19.7607L19.434 20.6524C18.5244 21.8666 17.4462 22.6526 16.1432 23.0522L15.8751 23.136L15.5851 23.1865C15.2144 23.252 14.8385 23.2845 14.462 23.2837C14.4035 23.2837 14.344 23.2837 14.2797 23.2821H14.2648H14.2005C14.1896 23.2821 14.1563 23.2821 14.0886 23.2862L14.0271 23.2901L13.9677 23.2924L13.6567 23.3039C13.4389 23.3113 13.2233 23.3503 13.0166 23.4193C12.111 23.7243 11.0425 23.8678 9.69883 23.8678Z" stroke="url(#paint3_linear_2227_2809)" stroke-width="0.339103" stroke-miterlimit="10"/>
<path d="M9.69854 22.7492C8.89691 22.7492 8.10876 22.6963 7.44385 22.6447L7.3434 22.6369L7.24307 22.6231C7.1058 22.6041 6.96125 22.5882 6.82115 22.5731C6.2091 22.5062 5.37214 22.4153 4.43796 21.9772L4.32617 21.9243L4.22181 21.866C2.42787 20.8594 1.76795 19.3744 1.2859 18.2891C1.23587 18.1774 1.18382 18.0596 1.13244 17.9469C0.927485 17.5348 0.796959 17.1391 0.688411 16.8005L0.671691 16.7476L0.657128 16.696C0.132594 14.8318 0.329732 13.5241 1.36033 12.0321L1.41629 11.9509L1.47696 11.8732C1.54546 11.7857 1.60952 11.7016 1.67262 11.6216C1.76769 11.4969 1.86396 11.3699 1.96873 11.2393C2.03386 11.158 2.08632 11.0673 2.12448 10.9703L2.24273 10.6684C2.29289 10.5399 2.32431 10.4051 2.33618 10.2677C2.43879 9.07176 3.02036 8.20001 3.30839 7.76798L3.31 7.76569C3.33104 7.73386 3.36286 7.6864 3.37352 7.66927L3.44094 7.56167L3.46157 7.53362C3.49744 7.46121 3.56755 7.3083 3.62931 7.14811C3.66262 7.03848 3.71521 6.8702 3.76658 6.71715C3.76658 6.71136 3.76658 6.70489 3.76887 6.69814C3.82402 6.19707 3.93945 5.70449 4.11285 5.23106L4.12931 5.18522L4.14724 5.1391C4.17852 5.05941 4.20064 4.9928 4.23111 4.90084C4.35409 4.53123 4.55985 3.91245 5.11136 3.23244L5.28773 3.01885L5.46478 2.85892C6.76708 1.67717 8.22445 1.57523 8.7115 1.54246L8.74507 1.5399L8.79658 1.53748C8.86279 1.53438 8.92913 1.53303 8.99399 1.53303C9.5722 1.53505 10.1443 1.65195 10.677 1.87714C10.7713 1.91638 10.8731 1.93418 10.9752 1.92933C11.0773 1.92447 11.1769 1.8971 11.2672 1.84923H11.27C11.7651 1.56202 12.6722 1.04139 13.8287 0.902101C13.8846 0.893741 13.9361 0.887405 13.9738 0.88255C14.0756 0.86974 14.238 0.850728 14.4377 0.831446C14.7833 0.798409 15.314 0.759033 15.8782 0.759033C16.8605 0.759033 17.6736 0.875266 18.3643 1.11407L18.4091 1.12944L18.4526 1.14603C20.0679 1.75632 20.7645 2.52223 21.3393 3.25428C21.494 3.44994 21.563 3.54082 21.7361 3.69346L21.8261 3.77369L21.8982 3.84786L21.9542 3.89209C22.2279 4.10392 22.7371 4.49847 23.1889 5.24172L23.2681 5.3717L23.3348 5.5079C23.9919 6.84998 23.7864 8.06719 23.676 8.72145L23.6696 8.76028C23.5917 9.236 23.4563 9.70039 23.2663 10.1432L23.2504 10.1812C23.2488 10.1895 23.2465 10.2015 23.2431 10.219C23.2345 10.264 23.2295 10.2999 23.2236 10.3455L23.2168 10.3969C23.1721 10.798 23.0839 11.1931 22.9538 11.5751C22.7581 12.1778 22.4682 12.7458 22.0951 13.2578C21.726 13.7818 21.3122 14.2086 20.8478 14.5463C20.6439 14.6952 20.4774 14.8895 20.3614 15.1138C20.2455 15.338 20.1832 15.5862 20.1795 15.8387C20.1756 16.1535 20.1447 16.4674 20.0874 16.777C19.8733 17.9315 19.3806 18.7134 19.074 19.1898L18.6355 19.8471C17.8503 20.944 16.924 21.6446 15.8092 21.9858L15.7502 22.0043C15.6556 22.0341 15.559 22.0574 15.4614 22.0743L15.3906 22.0866C15.083 22.141 14.7713 22.1681 14.459 22.1673C14.4061 22.1673 14.3525 22.1673 14.2942 22.166H14.2848C14.2582 22.166 14.2288 22.166 14.1975 22.166C14.1757 22.166 14.1181 22.166 14.014 22.1725L13.9679 22.1752L13.9229 22.1769C13.7733 22.1824 13.5874 22.1889 13.4215 22.1962C13.1943 22.2056 12.9698 22.2496 12.7558 22.3267C11.9534 22.6134 10.9713 22.7492 9.69854 22.7492Z" stroke="url(#paint4_linear_2227_2809)" stroke-width="0.316496" stroke-miterlimit="10"/>
<path d="M9.69852 21.6308C8.93491 21.6308 8.17413 21.5797 7.53053 21.5297L7.46338 21.5246L7.3965 21.5151C7.24251 21.4938 7.08892 21.4771 6.941 21.4612C6.37844 21.4 5.67834 21.3237 4.91271 20.9646L4.83788 20.9294L4.76843 20.8906C3.29892 20.0665 2.74971 18.8295 2.30797 17.8354C2.25363 17.713 2.19605 17.5867 2.14009 17.4636C1.96709 17.1182 1.84992 16.7645 1.75377 16.4618L1.74258 16.4268L1.73274 16.3924C1.29989 14.8545 1.44283 13.8784 2.27966 12.6668L2.31687 12.6129L2.35746 12.5612C2.43041 12.4678 2.49716 12.3806 2.56094 12.2964C2.77938 12.01 2.98933 11.7344 3.30338 11.3992C3.37215 11.3256 3.4134 11.2304 3.41988 11.1299L3.44374 10.768L3.43444 10.6495L3.43862 10.5265C3.47139 9.53418 3.9699 8.78756 4.23662 8.38654C4.26749 8.34016 4.29959 8.29242 4.3186 8.26195L4.36363 8.19034L4.4053 8.13439C4.45506 8.05308 4.58586 7.77571 4.68483 7.50953C4.71894 7.39761 4.78502 7.18429 4.84314 7.01507C4.86026 6.96113 4.86188 6.94805 4.8759 6.83222C4.92134 6.41353 5.01775 6.00186 5.16298 5.60651L5.1739 5.57563L5.1859 5.54462C5.2273 5.4389 5.25616 5.3526 5.28946 5.25241C5.39477 4.9354 5.55362 4.45752 5.97702 3.93555L6.09501 3.79288L6.21178 3.68717C7.12425 2.8587 8.11817 2.70188 8.78901 2.65684L8.81167 2.65482H8.84632C8.895 2.65266 8.9434 2.65158 8.99087 2.65158C9.56381 2.65158 10.2491 2.92639 10.609 3.09251C10.695 3.13189 10.788 3.154 10.8827 3.15751C10.9774 3.16088 11.0717 3.14551 11.1603 3.11234C11.3843 3.03116 11.6025 2.93515 11.8135 2.82485C12.2713 2.55922 13.0307 2.12058 13.9738 2.01068C14.0259 2.00286 14.0725 1.99692 14.1111 1.99194C14.2059 1.9802 14.3555 1.96402 14.5408 1.9446C14.8624 1.91386 15.3549 1.87732 15.8752 1.87732C16.7308 1.87732 17.4246 1.97346 17.9957 2.17087L18.0254 2.18125L18.0533 2.19218C19.4024 2.70188 19.9393 3.28763 20.4558 3.94499C20.6235 4.15696 20.7421 4.30852 20.9884 4.52885L21.0483 4.58225L21.1041 4.63821C21.1544 4.68796 21.2085 4.73368 21.2661 4.77494C21.4976 4.95414 21.8857 5.25444 22.2299 5.82118L22.2825 5.90788L22.3271 5.99876C22.826 7.01682 22.6657 7.96637 22.5698 8.53365L22.5635 8.57222C22.4997 8.96393 22.3881 9.34621 22.231 9.71055V9.71338C22.1876 9.80764 22.1575 9.90742 22.1419 10.01C22.1284 10.0816 22.12 10.1392 22.1119 10.203L22.1052 10.2549C22.0693 10.5822 21.9977 10.9046 21.8919 11.2162C21.7322 11.7136 21.4934 12.1819 21.1847 12.6032C20.729 13.2533 20.2022 13.7106 19.5675 14.0012C19.4132 14.0716 19.2815 14.1831 19.1868 14.3238C19.092 14.4643 19.0379 14.6282 19.0305 14.7975C19.0276 14.8669 19.0263 14.9239 19.0284 14.9558C19.0596 15.4448 19.0951 15.999 18.9862 16.57C18.8114 17.5143 18.4115 18.149 18.1109 18.615C18.1109 18.615 16.7319 20.5343 15.477 20.9174L15.3419 20.9596L15.1968 20.9849C14.9526 21.0284 14.7051 21.0498 14.457 21.049C14.41 21.049 14.3619 21.049 14.3102 21.0477H14.3057C14.2725 21.0477 14.2363 21.0477 14.1955 21.0477C14.1463 21.0477 14.066 21.0476 13.9413 21.0563L13.9108 21.0583H13.8808C13.4006 21.0756 12.9469 21.0919 12.8206 21.1164C12.7532 21.1269 12.6874 21.1462 12.625 21.174C11.9148 21.4852 10.9834 21.6308 9.69852 21.6308Z" stroke="url(#paint5_linear_2227_2809)" stroke-width="0.293889" stroke-miterlimit="10"/>
<path d="M9.69862 20.5129C8.9733 20.5129 8.23936 20.4634 7.61693 20.415L7.58362 20.4125L7.55032 20.4077C7.38002 20.3843 7.21847 20.3666 7.06192 20.3496C6.53226 20.2919 5.98454 20.2324 5.38759 19.9525L5.3501 19.9346L5.31545 19.9153C4.16903 19.2722 3.7432 18.3117 3.33018 17.3817C3.27152 17.2499 3.21084 17.1134 3.14814 16.9778C3.00831 16.7015 2.90934 16.4051 2.82047 16.1243L2.81481 16.1071L2.80982 16.0894C2.4657 14.8653 2.55321 14.2403 3.20126 13.3028L3.22001 13.2749L3.2401 13.2488C3.31615 13.1519 3.38532 13.0613 3.4518 12.9738C3.76329 12.5652 4.03257 12.212 4.63598 11.6551L4.6376 11.6534C4.68196 11.6112 4.71298 11.557 4.72714 11.4974C4.74129 11.4379 4.73779 11.3755 4.71729 11.3179L4.60861 11.0078C4.58677 10.91 4.57139 10.8109 4.56276 10.7111V10.7077L4.55602 10.6239L4.55818 10.5624C4.58029 9.88885 4.93466 9.35785 5.16888 9.00632C5.20555 8.95036 5.24048 8.89925 5.26758 8.85556L5.28997 8.81983L5.31518 8.78599C5.43964 8.61824 5.64177 8.15384 5.74803 7.86609C5.77594 7.7775 5.84754 7.53951 5.90714 7.36704C5.94948 7.23719 5.97698 7.10316 5.98899 6.9671C6.02418 6.63054 6.10144 6.2995 6.21889 5.98208L6.22442 5.96644L6.23062 5.95107C6.28227 5.81825 6.31867 5.70916 6.35387 5.60345C6.44758 5.3219 6.55357 5.00259 6.84847 4.63879L6.9078 4.56719L6.96565 4.515C7.61383 3.92615 8.32431 3.80749 8.87231 3.77122H8.88377H8.90171C8.93245 3.77122 8.96319 3.76919 8.99367 3.76919C9.52696 3.76919 9.93689 3.98791 10.2081 4.13273L10.2713 4.1663L10.2807 4.17129C10.3552 4.21161 10.4206 4.2468 10.4812 4.27674C10.6498 4.36128 10.8434 4.38111 11.0256 4.3327C11.397 4.23278 11.9764 4.01312 12.3661 3.79886L12.3742 3.79414C12.7841 3.55641 13.4015 3.19854 14.1251 3.11912C14.1707 3.11184 14.2143 3.10658 14.2555 3.10119C14.3393 3.09067 14.479 3.07328 14.6499 3.0579C14.9475 3.02999 15.4018 2.99561 15.878 2.99561C16.6072 2.99561 17.1813 3.07166 17.6331 3.22767L17.6479 3.23293L17.6631 3.23859C18.7454 3.64757 19.1402 4.07569 19.58 4.63663C19.759 4.86452 19.9281 5.07972 20.2489 5.36532L20.2787 5.39323L20.3068 5.42114C20.3935 5.50865 20.4869 5.58916 20.5863 5.66197C20.7787 5.81097 21.0423 6.01512 21.2792 6.40481L21.3055 6.44823L21.3279 6.49381C21.6681 7.18865 21.5549 7.86016 21.4722 8.35031L21.4657 8.38901C21.4162 8.6982 21.3275 8.99984 21.202 9.28679C21.1288 9.45197 21.0767 9.62578 21.0472 9.80404C21.0276 9.90746 21.0162 9.98837 21.0066 10.0632L20.9998 10.1163C20.973 10.3698 20.9181 10.6194 20.8363 10.8607C20.7122 11.2522 20.5247 11.6206 20.281 11.9511C19.87 12.5412 19.4142 12.905 18.8088 13.0976C18.5188 13.1894 18.2692 13.3784 18.1022 13.6327L18.0542 13.7066L18.0011 13.7673C17.8472 13.9423 17.8907 14.6206 17.9172 15.0255C17.9451 15.4698 17.9751 15.9292 17.892 16.3618C17.7556 17.1013 17.4388 17.6005 17.1552 18.0394C17.1552 18.0394 16.1023 19.5585 15.1522 19.8471L15.083 19.8689L15.0103 19.8814C14.8293 19.9139 14.6458 19.9299 14.462 19.929C14.4206 19.929 14.3782 19.929 14.3331 19.929C14.2932 19.929 14.2493 19.929 14.2006 19.929C14.136 19.929 14.0328 19.929 13.8758 19.94H13.8606H13.8455C13.2083 19.9632 12.8238 19.9768 12.6113 20.0182C12.4683 20.0435 12.3287 20.0852 12.1952 20.1426C11.6262 20.3949 10.8316 20.5129 9.69862 20.5129Z" stroke="url(#paint6_linear_2227_2809)" stroke-width="0.293889" stroke-miterlimit="10"/>
</g>
<defs>
<filter id="filter0_i_2227_2809" x="-3.16064" y="-2.95093" width="30.5794" height="29.2022" filterUnits="userSpaceOnUse" color-interpolation-filters="sRGB">
<feFlood flood-opacity="0" result="BackgroundImageFix"/>
<feBlend mode="normal" in="SourceGraphic" in2="BackgroundImageFix" result="shape"/>
<feColorMatrix in="SourceAlpha" type="matrix" values="0 0 0 0 0 0 0 0 0 0 0 0 0 0 0 0 0 0 127 0" result="hardAlpha"/>
<feOffset dx="0.0904275" dy="0.135641"/>
<feGaussianBlur stdDeviation="0.113034"/>
<feComposite in2="hardAlpha" operator="arithmetic" k2="-1" k3="1"/>
<feColorMatrix type="matrix" values="0 0 0 0 0 0 0 0 0 0 0 0 0 0 0 0 0 0 0.12 0"/>
<feBlend mode="normal" in2="shape" result="effect1_innerShadow_2227_2809"/>
</filter>
<radialGradient id="paint0_radial_2227_2809" cx="0" cy="0" r="1" gradientUnits="userSpaceOnUse" gradientTransform="translate(11.9137 13.2643) rotate(90) scale(14.0552 14.0552)">
<stop offset="0.166667" stop-color="#073183"/>
<stop offset="1" stop-color="#0054F9"/>
</radialGradient>
<linearGradient id="paint1_linear_2227_2809" x1="-2.97971" y1="-2.77002" x2="25.6914" y2="27.322" gradientUnits="userSpaceOnUse">
<stop offset="0.165" stop-color="#A281FF"/>
<stop offset="0.37" stop-color="#EB8280"/>
<stop offset="0.645" stop-color="#EBBF9A"/>
<stop offset="0.82" stop-color="#89D0FF"/>
</linearGradient>
<linearGradient id="paint2_linear_2227_2809" x1="-1.86326" y1="-1.48218" x2="24.5683" y2="26.3728" gradientUnits="userSpaceOnUse">
<stop offset="0.205697" stop-color="#89D0FF"/>
<stop offset="0.398413" stop-color="#EBBF9A"/>
<stop offset="0.601546" stop-color="#EB80DA"/>
<stop offset="0.841139" stop-color="#A281FF"/>
</linearGradient>
<linearGradient id="paint3_linear_2227_2809" x1="-0.742376" y1="-0.363538" x2="23.4493" y2="25.2538" gradientUnits="userSpaceOnUse">
<stop offset="0.205697" stop-color="#89D0FF"/>
<stop offset="0.398413" stop-color="#EBBF9A"/>
<stop offset="0.601546" stop-color="#EB8280"/>
<stop offset="0.841139" stop-color="#A281FF"/>
</linearGradient>
<linearGradient id="paint4_linear_2227_2809" x1="0.376252" y1="0.759033" x2="22.323" y2="24.132" gradientUnits="userSpaceOnUse">
<stop offset="0.205697" stop-color="#89D0FF"/>
<stop offset="0.398413" stop-color="#EBBF9A"/>
<stop offset="0.601546" stop-color="#EB80E7"/>
<stop offset="0.841139" stop-color="#A281FF"/>
</linearGradient>
<linearGradient id="paint5_linear_2227_2809" x1="1.49461" y1="1.87732" x2="21.2005" y2="23.0041" gradientUnits="userSpaceOnUse">
<stop offset="0.205697" stop-color="#89D0FF"/>
<stop offset="0.398413" stop-color="#EBBF9A"/>
<stop offset="0.601546" stop-color="#EB80D3"/>
<stop offset="0.841139" stop-color="#A281FF"/>
</linearGradient>
<linearGradient id="paint6_linear_2227_2809" x1="2.6116" y1="2.99561" x2="20.075" y2="21.8847" gradientUnits="userSpaceOnUse">
<stop offset="0.205697" stop-color="#89D0FF"/>
<stop offset="0.398413" stop-color="#EBBF9A"/>
<stop offset="0.601546" stop-color="#A280EB"/>
<stop offset="0.841139" stop-color="#A281FF"/>
</linearGradient>
</defs>
</svg>
