<svg width="124" height="113" viewBox="0 0 124 113" fill="none" xmlns="http://www.w3.org/2000/svg">
<path d="M122.839 29.3782C122.455 31.6131 122.012 32.6961 121.48 33.9563C120.919 35.315 120.269 36.861 119.689 39.923C119.462 41.143 119.344 42.049 119.245 42.837V42.886L119.236 42.935C119.078 44.205 118.97 45.062 118.448 46.578C118.035 47.819 117.326 49.896 115.642 52.131C114.283 53.942 111.999 56.965 108.957 57.329C108.691 57.349 108.14 57.378 107.914 57.26C99.289 52.85 91.875 49.601 89.306 48.872C86.323 48.025 86.707 41.518 87.041 35.778C87.189 33.208 87.337 30.7861 87.219 28.7087C86.795 21.4625 85.515 13.5271 79.204 9.65789C75.434 7.35409 70.58 6.6748 65.933 6.6649C66.789 6.2514 67.754 5.70009 68.798 5.08969L68.827 5.07C71.564 3.4849 74.961 1.5158 78.328 1.1712C79.431 1.0629 80.514 0.934899 81.587 0.816799C88.39 0.0488991 94.258 -0.610807 100.461 1.50599C103.266 2.47079 109.036 5.68039 110.523 8.66349C111.566 10.7705 113.338 12.4146 116.863 15.6931C118.694 17.3964 119.905 18.3908 120.791 19.1193L120.831 19.1488C122.071 20.1728 122.317 20.3894 122.691 21.1376C123.833 23.4611 123.42 25.9422 122.839 29.3683V29.3782Z" fill="#5CA8FF"/>
<path d="M91.452 59.171C91.865 59.308 92.013 59.81 91.777 60.165C90.851 61.563 89.798 63.483 88.538 65.826C87.947 66.929 87.386 67.972 86.913 68.789C85.239 71.664 85.102 74.076 85.003 76.016C84.885 78.044 84.787 78.979 83.576 79.787C82.571 80.456 81.547 80.683 74.449 81.766C73.208 81.963 72.657 82.199 72.175 82.406C72.047 82.465 71.909 82.524 71.761 82.573C71.348 82.73 70.944 82.376 70.974 81.943C71.033 80.919 71.062 79.639 71.072 78.034V77.729C71.111 76.341 71.052 75.209 71.003 74.293C70.905 72.481 70.895 71.713 71.377 70.926C71.968 69.971 72.431 69.676 73.199 69.193C74.262 68.524 75.719 67.608 77.875 64.645C79.017 63.079 79.273 62.223 79.431 61.494C79.5 61.189 79.529 61.071 80.405 60.401C81.341 59.692 84.176 57.536 87.819 58.147C88.823 58.314 90.103 58.688 91.472 59.161L91.452 59.171Z" fill="#5CA8FF"/>
<path d="M63.186 91.916C63.028 92.123 62.851 92.211 62.585 92.221C61.847 92.251 61.325 92.073 60.97 91.65C60.242 90.754 60.34 88.962 60.508 87.919L63.51 87.121C63.747 88.716 63.855 91.03 63.176 91.916H63.186Z" fill="#5CA8FF"/>
<path d="M63.432 81.076C63.383 81.519 63.324 82.011 63.324 82.523C63.324 82.71 63.324 82.907 63.333 83.094C63.333 83.587 63.363 84.364 63.294 84.719C62.359 85.063 61.551 85.063 60.498 85.044C60.478 84.738 60.498 84.286 60.518 83.98C60.518 83.744 60.537 83.508 60.537 83.281C60.537 83.035 60.537 82.789 60.537 82.543C60.537 81.962 60.527 81.017 60.665 80.741C60.951 80.702 61.236 80.643 61.551 80.564C62.172 80.426 62.979 80.259 63.501 80.338C63.501 80.535 63.461 80.84 63.432 81.076Z" fill="#5CA8FF"/>
<path d="M57.869 90.99C57.722 92.526 57.249 94.436 55.802 94.722C55.152 94.86 54.837 94.663 54.64 94.476C53.665 93.57 53.508 90.843 53.646 88.884C54.295 88.893 55.152 88.746 56.156 88.559C56.767 88.441 57.387 88.303 57.869 88.185C57.928 88.903 57.968 89.937 57.869 90.99Z" fill="#5CA8FF"/>
<path d="M57.19 85.468L53.931 86.61C54.099 85.34 54.315 83.567 54.394 82.386C54.453 81.549 54.68 81.293 54.739 81.244C54.758 81.224 54.808 81.185 54.926 81.185C54.945 81.185 54.965 81.185 54.985 81.185H55.054L57.111 81.086C57.2 82.051 57.2 84.178 57.19 85.468Z" fill="#5CA8FF"/>
<path d="M51.923 84.453C51.736 84.945 51.519 86.333 51.381 87.308L47.295 87.18C47.522 85.92 47.847 84.63 48.191 83.606C48.546 82.582 48.93 81.824 49.274 81.607C49.688 81.361 50.584 81.302 51.135 81.775C52.031 82.543 52.277 83.419 51.903 84.443L51.923 84.453Z" fill="#5CA8FF"/>
<path d="M50.397 96.947C50.082 97.38 49.727 97.597 49.294 97.646C48.851 97.695 48.506 97.597 48.231 97.341C46.951 96.159 47.049 92.28 47.098 90.419C48.792 90.035 50.623 89.701 51.489 89.651C51.617 91.207 51.657 95.244 50.397 96.947Z" fill="#5CA8FF"/>
<path d="M45.07 87.072C44.873 87.603 44.676 88.106 44.529 88.549C44.056 88.696 42.599 88.568 41.122 88.243L42.146 81.814C43.82 81.371 45.759 81.224 46.232 81.726C46.852 82.385 45.612 85.674 45.07 87.072Z" fill="#5CA8FF"/>
<path d="M43.229 97.922C42.442 98.896 41.25 99.349 39.5964 99.34C38.4543 99.32 38.0408 98.887 37.8341 98.562C36.9185 97.105 37.8144 93.669 38.7202 91.483L44.253 91.818C44.312 92.202 44.352 92.674 44.381 93.186C44.44 94.742 44.243 96.691 43.239 97.941L43.229 97.922Z" fill="#5CA8FF"/>
<path d="M88.922 51.304C83.94 49.896 84.373 42.62 84.787 35.581C84.934 33.0898 85.072 30.7368 84.954 28.8169C84.57 22.2304 83.467 15.063 78.171 11.814C72.47 8.3287 63.156 9.1262 57.407 9.8548C57.407 9.8548 57.407 9.8548 57.397 9.8548C55.29 10.4947 53.321 10.9082 51.795 10.8295C48.398 10.6522 45.76 9.2247 43.436 7.9743C41.625 6.9898 40.0395 6.1431 38.5528 6.1431C38.4741 6.1431 38.3953 6.1431 38.3067 6.1431C33.8468 6.4286 31.7989 7.5214 29.9382 9.1853C29.4656 9.5988 28.9044 10.7999 27.0338 16.1853C26.0886 18.9027 25.9213 20.3991 25.744 21.8464C25.5865 23.1657 25.429 24.5244 24.7201 26.5525C24.2278 27.9505 23.8734 29.1615 23.519 30.3233C22.5935 33.4147 21.865 35.847 19.6793 38.751C19.4233 39.095 19.1083 39.598 18.7341 40.169C18.2419 40.946 17.6216 41.921 16.8143 43.043C16.2433 43.841 14.924 46.804 15.0027 47.71C15.111 49.148 15.5738 50.044 16.1153 51.087C16.6469 52.111 17.2573 53.283 17.3656 54.887L17.3853 55.153C17.5822 57.703 17.2179 58.983 12.3642 63.315C9.26288 66.091 7.05749 68.76 5.57089 70.719C5.44289 70.896 5.61028 71.152 5.82688 71.132C5.87608 71.132 5.92529 71.132 5.97449 71.132C6.07299 71.132 6.16158 71.122 6.25018 71.122C6.33878 71.122 6.43729 71.122 6.52589 71.122C6.62429 71.122 6.71288 71.132 6.80158 71.142C7.97318 71.28 9.11519 71.772 9.94219 72.629C10.0899 72.776 10.3065 72.816 10.5034 72.737C11.291 72.412 12.1574 72.461 12.9844 72.54C14.0084 72.639 15.0421 72.944 15.7215 73.603C15.9282 73.8 16.2236 73.909 16.4992 73.84C17.3066 73.663 18.1434 73.672 18.9212 73.958C19.5415 74.184 20.0534 74.549 20.4669 75.002C20.7524 75.317 21.2644 75.385 21.6287 75.149C21.8551 75.002 22.1012 74.883 22.3769 74.785C23.4304 74.43 24.5921 74.627 25.616 75.002C26.1182 75.179 26.6498 75.346 27.1027 75.651C27.9395 76.203 28.4417 77.02 28.7666 77.926C28.9536 78.438 29.6428 78.615 30.0563 78.27C30.8045 77.65 31.3953 77.542 31.9958 77.807C32.301 77.945 32.5176 78.132 32.6555 78.369C32.9016 78.782 33.4136 79.117 33.8763 78.989C35.5008 78.536 37.5486 78.772 39.0254 79.56C39.5472 79.836 40.0592 80.249 40.4333 80.889L40.4727 80.604C40.4924 80.476 40.581 80.367 40.709 80.338L41.054 80.229C41.861 79.973 45.976 78.792 47.571 80.476C47.64 80.544 47.758 80.554 47.827 80.476C48.044 80.239 48.221 80.101 48.339 80.042C49.383 79.412 51.165 79.373 52.356 80.387C52.592 80.584 52.986 80.515 53.163 80.259C53.272 80.101 53.4 79.964 53.547 79.845C53.961 79.481 54.492 79.314 55.083 79.353L57.338 79.235C57.909 79.205 59.671 79.087 60.232 78.969C60.272 78.969 60.321 78.95 60.36 78.95C60.597 78.91 60.872 78.851 61.168 78.792C62.26 78.556 63.511 78.28 64.525 78.753C65.509 79.205 65.381 80.328 65.263 81.312C65.214 81.716 65.165 82.13 65.175 82.523C65.175 82.71 65.185 82.897 65.185 83.085C65.194 83.931 65.214 84.719 65.047 85.319L65.155 85.792C65.155 85.812 65.155 85.831 65.175 85.861C65.263 86.284 65.726 86.53 66.1 86.304C66.888 85.822 67.715 85.201 67.961 84.837C67.981 84.808 67.99 84.778 68.01 84.748C68.05 84.66 68.109 84.463 68.178 84.049C68.315 83.213 68.473 81.499 68.493 78.034C68.493 77.847 68.493 77.719 68.493 77.66C68.522 76.37 68.473 75.346 68.424 74.43C68.335 72.55 68.256 71.073 69.192 69.567C70.097 68.1 70.983 67.549 71.83 67.017C72.815 66.397 73.927 65.698 75.798 63.128C76.713 61.868 76.832 61.356 76.92 60.942C77.127 59.987 77.442 59.416 78.86 58.343C80.012 57.467 83.526 54.809 88.262 55.606C89.818 55.872 92.328 56.699 94.819 57.674C94.908 57.703 95.006 57.733 95.095 57.782C95.124 57.802 95.164 57.812 95.193 57.831C97.408 58.717 99.574 59.702 100.953 60.499C101.278 60.686 101.691 60.578 101.918 60.283C102.37 59.692 102.863 59.357 103.394 59.032C103.591 58.914 103.749 58.816 103.897 58.698C103.946 58.658 103.995 58.609 104.044 58.579C104.458 58.245 104.458 57.526 103.985 57.28C97.31 53.824 91.029 51.904 88.951 51.314L88.922 51.304ZM41.487 52.84C39.9509 59.574 29.505 66.987 24.7595 66.987H24.661C24.5823 66.987 24.5035 66.978 24.4149 66.958C24.3263 66.948 24.2279 66.918 24.1294 66.889C24.0802 66.879 24.0211 66.859 23.9719 66.84C23.1055 66.564 21.9142 65.904 21.0183 65.018C20.398 64.408 19.9057 63.689 19.7581 62.911C19.7285 62.774 19.699 62.646 19.6694 62.508C19.4135 61.366 19.0984 59.928 20.1026 57.585C20.2405 57.27 20.3685 56.975 20.4768 56.709C20.5161 56.62 20.5555 56.532 20.5851 56.443C20.6934 56.187 20.7918 55.961 20.8706 55.744C21.0183 55.39 21.1266 55.084 21.225 54.828C21.2644 54.73 21.3038 54.631 21.3333 54.543C21.6188 53.736 21.6582 53.43 21.6976 53.115C21.737 52.869 21.7665 52.564 21.8748 52.141C22.1702 50.88 22.3277 49.807 22.4655 48.852C22.7117 47.139 22.9184 45.653 23.8439 44.294C24.0014 44.067 24.1786 43.851 24.3755 43.664C24.4445 43.605 24.5134 43.536 24.5823 43.477C24.6512 43.418 24.73 43.359 24.7989 43.309C25.0253 43.152 25.2616 43.014 25.5274 42.896C25.616 42.856 25.7046 42.817 25.7933 42.788C25.9803 42.719 26.1674 42.66 26.3643 42.61C27.211 42.404 28.2152 42.374 29.3671 42.522C30.6273 42.62 31.7989 42.856 32.8327 43.152C33.6991 43.388 34.467 43.674 35.1267 43.93C35.1956 43.959 35.2547 43.979 35.3236 44.008C35.4516 44.058 35.5697 44.107 35.6878 44.166C35.8651 44.245 36.0324 44.314 36.1801 44.382C36.3869 44.471 36.5739 44.56 36.7315 44.629L36.889 44.697C37.6175 45.032 38.2476 45.397 38.7793 45.78C39.0451 45.977 39.2913 46.174 39.5078 46.371C39.5866 46.44 39.6555 46.509 39.7244 46.578C39.7934 46.647 39.8623 46.716 39.9312 46.785C41.94 48.892 41.841 51.343 41.487 52.84ZM46.321 27.3007L46.114 28.5216C45.642 31.2783 44.568 35.049 40.6105 36.024C36.8004 36.959 35.8946 37.156 33.1773 37.274C33.1182 37.274 33.0493 37.274 32.9902 37.274C31.0113 37.274 27.1913 36.024 26.5218 32.9224C26.0886 30.9238 26.9747 29.4766 28.422 27.0743C28.6681 26.6805 28.9241 26.2571 29.1998 25.7747C31.1196 22.5356 31.8777 20.1924 32.4881 18.3218C33.0788 16.4905 33.5711 14.9744 34.8411 13.7142C35.1365 13.4188 35.4614 13.1431 35.8552 12.8773C36.1013 12.7099 36.3573 12.5622 36.633 12.4244C36.9973 12.2472 37.3714 12.0897 37.7652 11.9617C38.6513 11.6761 39.5965 11.5383 40.5515 11.5383C42.402 11.5383 44.243 12.07 45.563 13.1234C46.153 13.596 47 14.551 47.483 17.3471C47.739 18.7845 47.305 21.4427 46.311 27.3007H46.321ZM74.597 35.138C73.228 37.481 72.49 38.771 71.308 39.735C68.965 41.655 66.238 42.138 63.993 42.138C62.379 42.138 61.01 41.892 60.203 41.744C57.879 41.321 53.557 40.533 52.12 37.126C51.834 36.457 51.834 36.024 51.834 35.482C51.834 34.941 51.834 34.045 51.588 31.8985V31.7607C51.46 30.786 51.332 29.6932 51.608 28.2754L51.637 28.1081C52.454 23.9632 52.671 23.3331 52.858 22.9786C53.282 22.1615 54.276 21.8464 55.093 22.2599C55.881 22.6734 56.215 23.6284 55.841 24.4259C55.763 24.6622 55.526 25.5483 54.896 28.748L54.867 28.9154C54.689 29.8212 54.768 30.5005 54.867 31.3767V31.5244C55.152 33.8578 55.152 34.911 55.152 35.482C55.152 35.581 55.152 35.699 55.152 35.758C55.152 35.787 55.162 35.817 55.172 35.837C55.438 36.477 56.048 36.959 56.786 37.333C57.249 37.569 57.732 37.126 57.623 36.614C56.885 32.9618 56.924 28.7086 58.322 26.0799C58.775 25.2037 59.622 23.7761 60.429 22.447C60.429 22.447 60.429 22.447 60.429 22.4371C60.429 22.4371 60.429 22.4371 60.429 22.4273C60.508 22.2895 60.597 22.1615 60.675 22.0236C60.744 21.9055 60.813 21.7972 60.872 21.6889C61.227 21.0982 61.561 20.5665 61.827 20.1333C61.867 20.0742 61.896 20.0152 61.936 19.9561C61.955 19.9167 61.985 19.8773 62.014 19.838C62.073 19.7395 62.123 19.6607 62.172 19.582C62.192 19.5426 62.211 19.5131 62.231 19.4835C62.241 19.4737 62.251 19.454 62.26 19.4441C62.29 19.4048 62.31 19.3654 62.329 19.326C62.369 19.2571 62.408 19.2079 62.418 19.1783C62.418 19.1783 62.428 19.1586 62.438 19.1586C62.438 19.1586 62.438 19.1586 62.438 19.1488C62.713 18.7451 62.989 18.3611 63.255 18.0067C63.619 17.5144 63.196 16.8745 62.635 17.1108C61.276 17.6621 60.35 18.371 60.163 18.5187C59.445 19.0897 58.401 18.9716 57.84 18.2528C57.269 17.5341 57.387 16.4905 58.106 15.9195C58.962 15.25 63.481 11.9518 68.896 13.4976C72.795 14.6101 74.843 17.5932 75.621 18.7156C76.241 19.6214 78.151 22.3879 78.082 26.2473C78.033 29.1911 76.812 31.3078 74.567 35.157L74.597 35.138Z" fill="#5CA8FF"/>
<path d="M39.4192 14.9448C39.1435 15.6143 38.8087 16.4512 38.4543 17.3569C37.6174 19.454 36.6821 21.8169 36.2194 22.6833C35.4416 24.1699 34.8312 25.1052 34.3389 25.8633C33.7778 26.7297 33.3347 27.4189 33 28.3739C32.4092 30.0476 32.3108 31.9182 32.6849 33.9562C31.6511 33.8381 29.9479 33.1292 29.7608 32.2234C29.6132 31.5539 30.0365 30.8155 31.2573 28.7972C31.5035 28.3936 31.7693 27.9604 32.0548 27.4681C34.1617 23.9139 35.0183 21.2754 35.6484 19.3358C36.3277 17.2289 36.6428 16.3527 37.7257 15.6143C38.2082 15.2796 38.7989 15.063 39.4093 14.9448H39.4192Z" fill="#5CA8FF"/>
<path d="M37.3517 89.464C36.1997 91.817 34.7722 93.983 33.8762 95.057C33.1378 93.058 31.8579 88.48 32.1927 84.808C32.1927 84.699 32.2124 84.601 32.2321 84.493C32.3699 83.36 32.6751 82.317 33.2068 81.48C33.5612 80.928 34.5457 80.594 35.6583 80.594C36.4853 80.594 37.3812 80.771 38.1491 81.184C38.5626 81.401 39.1238 81.854 39.1829 83.154C39.2715 84.906 38.4346 87.269 37.3517 89.474V89.464Z" fill="#5CA8FF"/>
<path d="M100.362 63.138C100.45 63.207 100.509 63.315 100.46 63.423C100.116 64.113 99.702 64.595 99.22 65.166C98.629 65.865 97.959 66.653 97.339 67.893C96.453 69.646 96.168 71.241 96.02 75.336C95.843 80.141 96.03 82.838 96.168 84.807C96.305 86.708 96.384 87.86 96.04 89.71C95.36 93.452 93.756 95.923 91.727 99.064C89.187 102.982 86.568 107.038 82.227 108.328C81.823 108.456 81.813 108.456 80.681 108.456C79.696 108.456 78.052 108.456 74.951 108.574C69.28 108.781 66.435 108.879 64.003 109.352C61.453 109.844 60.114 110.386 58.824 110.908C57.662 111.38 56.56 111.823 54.443 112.266C53.183 112.522 51.302 112.798 44.893 112.808C38.2277 112.818 34.2108 112.818 28.8943 112.217C21.6087 111.38 17.9462 110.967 15.5144 109.667C9.7844 106.605 7.36251 101.111 3.35541 92.004C3.35541 91.985 3.34561 91.975 3.33571 91.955C3.28651 91.847 3.42431 91.729 3.53261 91.798C3.71971 91.916 3.91661 92.014 4.13321 92.083C4.31041 92.142 4.48761 92.191 4.67471 92.221C5.03901 92.28 5.42291 92.29 5.80691 92.221C5.87581 92.211 5.93491 92.192 5.99401 92.172C6.00381 92.172 6.01371 92.162 6.03341 92.152C6.10231 92.123 6.18101 92.152 6.21061 92.221C6.46651 92.92 6.87021 93.55 7.54951 93.905C8.22891 94.259 9.00661 94.289 9.76471 94.279C10.5425 94.269 11.3302 94.22 12.1079 94.131C12.5214 94.092 12.9448 94.289 13.1023 94.673C13.8112 96.395 14.6973 97.646 16.0165 97.833C16.0855 97.843 16.1839 97.853 16.3021 97.853C16.5974 97.853 17.0602 97.764 17.7099 97.321C18.2121 96.976 18.9898 97.183 19.3541 97.666C19.6889 98.118 20.0827 98.433 20.4174 98.709C21.7859 100.107 25.094 100.777 27.8802 100.777C29.3964 100.777 30.7649 100.58 31.5624 100.186C32.7044 99.625 32.7044 98.778 32.6552 98.433C32.5567 97.813 32.4681 97.203 32.3894 96.592C32.3894 96.523 32.4878 96.494 32.5174 96.563C32.6847 96.927 32.8915 97.38 33.433 97.469C33.4921 97.469 33.561 97.488 33.6299 97.488C34.4077 97.488 35.6088 97.744 35.8254 98.493C35.9337 98.876 36.0814 99.231 36.2881 99.556C36.7509 100.294 37.7059 101.17 39.5863 101.2H39.734C41.89 101.2 43.554 100.491 44.676 99.103C44.745 99.014 44.814 98.926 44.883 98.827C45.287 98.256 46.488 98.237 47 98.709C47.581 99.241 48.309 99.516 49.117 99.516C49.245 99.516 49.382 99.516 49.51 99.497C50.475 99.398 51.312 98.886 51.932 98.01C52.346 97.439 52.641 96.74 52.858 95.982C52.927 95.756 53.232 95.696 53.399 95.844C53.813 96.228 54.473 96.632 55.428 96.632C55.664 96.632 55.91 96.612 56.176 96.553C58.046 96.179 58.982 94.623 59.425 92.871C59.444 92.812 59.523 92.792 59.563 92.841C60.035 93.422 60.911 94.082 62.437 94.082C62.516 94.082 62.595 94.082 62.674 94.082C63.481 94.042 64.16 93.688 64.653 93.058C65.253 92.28 65.489 91.128 65.539 89.966C65.558 89.632 65.775 89.327 66.09 89.199C67.695 88.529 69.644 87.082 70.215 86.087C70.235 86.058 70.255 86.018 70.274 85.979C70.402 85.723 70.629 85.526 70.914 85.467C72.165 85.231 72.706 84.995 73.198 84.778C73.602 84.601 73.927 84.463 74.833 84.325C82.04 83.222 83.447 82.986 85.003 81.942C87.336 80.387 87.454 78.25 87.573 76.173C87.671 74.421 87.779 72.432 89.148 70.099C89.64 69.252 90.211 68.189 90.822 67.056C91.885 65.087 93.362 62.331 94.425 60.893C94.622 60.617 94.986 60.539 95.301 60.667C97.792 61.73 99.909 62.783 100.372 63.148L100.362 63.138Z" fill="#5CA8FF"/>
<path d="M30.371 84.581C30.0855 87.072 29.9083 90.4 30.3119 94.741C30.4301 95.962 30.5876 97.232 30.7845 98.522C30.4399 98.709 29.4258 98.965 27.6045 98.936C24.9954 98.886 22.4652 98.227 21.6972 97.4L21.5791 97.291C20.949 96.779 20.5256 96.445 20.4666 95.539C20.4469 95.234 20.5749 94.929 20.8604 94.495C21.0179 94.249 21.2246 93.974 21.4708 93.629C21.9138 93.038 22.4553 92.31 23.0067 91.365C24.641 88.608 25.2612 87.761 26.039 86.678C26.0981 86.59 26.167 86.501 26.2359 86.412C26.6987 85.782 27.2402 85.024 28.0573 83.774C28.6677 82.848 29.1699 82.13 29.5932 81.559C30.2922 80.613 30.7451 80.101 31.0405 79.816C31.0011 80.249 30.9026 80.85 30.8042 81.401C30.6664 82.258 30.4891 83.301 30.3513 84.561L30.371 84.581Z" fill="#5CA8FF"/>
<path d="M29.1801 45.84C29.1801 45.84 29.1407 45.879 29.1309 45.909C28.7961 46.381 28.4023 46.913 27.9396 47.947C26.6991 50.703 26.6695 52.269 26.6498 53.529C26.64 54.189 26.6301 54.71 26.4529 55.321C26.3249 55.724 26.128 56.187 25.8917 56.719C25.1632 58.393 24.1983 60.598 24.6315 63.552C24.0408 63.266 23.135 62.616 23.007 62.262C22.9775 62.104 22.9381 61.947 22.9086 61.779C22.7018 60.854 22.564 60.253 23.1547 58.905C24.7004 55.341 24.8875 54.504 25.0057 53.529C25.0254 53.322 25.0549 53.155 25.114 52.889C25.4389 51.481 25.6062 50.28 25.7539 49.315C25.9607 47.848 26.0985 46.883 26.6006 46.145C26.7778 45.879 27.2898 45.731 28.0183 45.731C28.3039 45.731 28.6287 45.751 28.993 45.8H29.0718C29.0718 45.8 29.1505 45.81 29.1801 45.82V45.84Z" fill="#5CA8FF"/>
<path d="M27.142 80.958C27.0633 80.102 26.9057 79.245 26.6005 78.448C26.5808 78.408 26.4824 78.201 26.4627 78.162C26.4036 78.064 26.3446 77.965 26.2855 77.857C26.2461 77.817 26.2166 77.788 26.187 77.749C26.1378 77.699 26.0787 77.65 26.0295 77.611C26.0197 77.601 26.0098 77.591 26 77.581C25.9803 77.561 25.9409 77.532 25.9015 77.502C25.8326 77.463 25.7735 77.433 25.7046 77.394C25.6849 77.384 25.6357 77.365 25.5963 77.345C25.5865 77.345 25.5766 77.345 25.5668 77.345L25.5471 77.335H25.5274C25.5077 77.325 25.4979 77.325 25.488 77.315C24.9859 77.128 24.4838 76.931 23.962 76.853C23.962 76.853 23.9521 76.853 23.9423 76.853H23.9324C23.8734 76.853 23.7552 76.843 23.7454 76.843C23.6666 76.843 23.5977 76.843 23.5288 76.843C23.4894 76.843 23.4599 76.843 23.4303 76.843H23.4008C23.4008 76.843 23.3713 76.843 23.3614 76.843H23.3417C23.2236 76.882 23.0956 76.912 22.9774 76.941C22.9282 76.971 22.8691 76.99 22.8199 77.02C22.7805 77.04 22.7313 77.079 22.6919 77.099C22.6919 77.099 22.6919 77.099 22.6722 77.099C22.6132 77.168 22.5541 77.217 22.5049 77.276C22.4852 77.296 22.4359 77.365 22.3966 77.404C22.3867 77.404 22.3769 77.414 22.3769 77.424C22.3769 77.424 22.3769 77.433 22.367 77.443C22.3473 77.473 22.3375 77.493 22.3277 77.502C22.1307 77.817 21.924 78.123 21.7172 78.428C21.2348 79.156 20.7524 79.895 20.2503 80.614C19.7974 81.273 19.3445 81.923 18.8916 82.583C18.6356 82.947 18.3895 83.311 18.1434 83.675C18.104 83.735 18.0548 83.803 18.0154 83.863C18.3107 83.922 18.6061 83.981 18.9015 84.03C19.5709 84.148 20.2306 84.266 20.9099 84.365C22.308 84.552 23.7257 84.64 25.1336 84.591C25.2025 84.591 25.2714 84.591 25.3305 84.601C25.6751 84.119 26.0689 83.538 26.5808 82.77C26.8664 82.336 27.1322 81.933 27.3882 81.569C27.27 81.391 27.2011 81.185 27.1814 80.958H27.142Z" fill="#5CA8FF"/>
<path d="M22.1798 86.727C22.0617 87.8 20.8605 90.586 18.9801 93.235C17.4048 95.45 16.4498 95.992 16.2628 96.011C15.5047 95.903 14.7564 94.032 14.1657 92.172C13.9294 91.413 13.7128 90.665 13.5356 90.035C13.1319 88.617 13.0532 86.717 13.1221 85.526C14.7072 86.402 17.4934 86.638 21.402 86.658H21.4119C21.6679 86.688 21.9238 86.717 22.1798 86.737V86.727Z" fill="#5CA8FF"/>
<path d="M19.3936 77.867C19.3936 77.867 19.3543 77.926 19.3444 77.955C18.6749 78.94 17.9956 79.925 17.3163 80.909C16.9618 81.411 16.6172 81.923 16.2727 82.435C16.0856 82.711 15.8296 83.016 15.6032 83.341C15.042 83.213 14.4906 83.085 13.9393 82.927C13.4864 82.799 13.0434 82.662 12.6102 82.484C12.5216 82.455 12.4428 82.415 12.3542 82.376C12.2853 82.228 12.177 82.1 12.0588 82.002C12.0588 82.002 12.0588 81.992 12.0588 81.982C12.2164 81.657 12.3837 81.332 12.5413 81.008C12.8465 80.417 13.1418 79.826 13.4766 79.255C14.0771 78.221 14.7959 77.178 15.8001 76.508C15.8493 76.469 15.9084 76.439 15.9576 76.4C16.3514 76.154 16.7452 75.977 17.2178 75.917C17.2769 75.917 17.6116 75.917 17.7692 75.917C17.7987 75.917 17.8184 75.917 17.8381 75.917C17.8381 75.917 17.8774 75.917 17.907 75.937C18.0251 75.977 18.1433 75.996 18.2614 76.036C18.3008 76.055 18.3402 76.075 18.3796 76.095C18.478 76.154 18.5863 76.213 18.6848 76.292C18.5272 76.173 18.9014 76.557 18.9014 76.528C19.1967 76.941 19.2952 77.286 19.3739 77.847L19.3936 77.867Z" fill="#5CA8FF"/>
<path d="M14.0771 75.071C12.8366 76.095 11.9308 77.453 11.1727 78.871C10.7494 79.659 10.3654 80.456 9.9716 81.253C9.9322 81.332 9.8928 81.411 9.8436 81.49C9.4695 81.411 9.0954 81.303 8.7212 81.185C8.3274 81.057 7.9435 80.919 7.5693 80.742C7.402 80.663 7.2247 80.574 7.0574 80.486C7.4315 79.777 7.8745 79.107 8.2979 78.448C8.8985 77.522 9.5384 76.606 10.2374 75.75C10.5033 75.425 10.7789 75.071 11.153 74.854C11.5272 74.628 11.9899 74.687 12.4231 74.706C12.8858 74.736 13.3781 74.746 13.8113 74.923C13.8999 74.962 13.9984 75.021 14.0673 75.071H14.0771Z" fill="#5CA8FF"/>
<path d="M12.1079 91.748C12.0488 91.798 11.9898 91.857 11.9504 91.926C11.911 91.935 11.8618 91.945 11.8322 91.955C11.5369 91.985 11.2317 92.004 10.9265 92.024C10.3456 92.063 9.76468 92.083 9.17398 92.063C8.84908 92.054 8.55368 92.004 8.41588 91.798C8.19928 91.473 8.14018 90.902 8.06148 90.468C7.67748 88.352 7.62828 86.137 7.90388 83.99C9.01648 84.384 10.1585 84.699 11.3203 84.886C11.0643 86.826 11.4975 89.661 11.7436 90.537C11.8618 90.941 11.9799 91.355 12.0981 91.748H12.1079Z" fill="#5CA8FF"/>
<path d="M8.5442 74.361C7.5597 75.562 6.67361 76.852 5.86631 78.181C5.54141 78.723 5.1771 79.284 4.9113 79.855C4.5175 79.747 4.17291 79.589 3.79881 79.363C3.51331 79.185 3.2376 78.989 2.9619 78.782C2.893 78.723 2.7059 78.575 2.5878 78.486C2.5583 78.467 2.5386 78.447 2.509 78.427C2.5976 78.171 2.765 77.886 2.8536 77.699C3.0604 77.246 3.28681 76.803 3.53291 76.38C3.98581 75.572 4.4978 74.785 5.0787 74.056C5.2953 73.79 5.4922 73.446 5.8269 73.347C6.1321 73.259 6.53581 73.298 6.77211 73.347C7.50061 73.485 8.0717 73.82 8.5344 74.371L8.5442 74.361Z" fill="#5CA8FF"/>
<path d="M0.973102 79.599C0.983002 79.55 1.0519 79.54 1.0814 79.589C1.3374 79.954 1.7017 80.279 2.0856 80.574C2.253 80.702 2.4302 80.84 2.5976 80.958C2.6173 80.978 2.6271 80.997 2.6271 81.027C2.2235 82.71 1.938 84.502 1.9478 86.265C1.9478 86.343 1.8297 86.363 1.81 86.284C1.3079 84.237 0.638402 80.81 0.963302 79.609L0.973102 79.599Z" fill="#5CA8FF"/>
<path d="M5.78729 83.261C5.59039 84.728 5.49199 86.195 5.56089 87.672C5.59039 88.479 5.67899 89.287 5.78729 90.084C5.78729 90.084 5.78729 90.094 5.78729 90.104C5.61009 90.064 5.43289 90.064 5.24579 90.084C5.28519 90.074 5.18679 90.084 5.14739 90.084H5.13749C5.13749 90.084 5.06859 90.084 5.05879 90.084C4.85199 90.035 4.83229 90.015 4.67479 89.907C4.46809 89.769 4.24159 89.523 4.09389 89.267C3.70009 88.588 3.61149 87.751 3.58199 86.983C3.52289 85.467 3.65089 83.951 3.93639 82.464C4.18249 82.562 4.38929 82.651 4.74369 82.808C5.08829 82.956 5.45259 83.114 5.80699 83.271L5.78729 83.261Z" fill="#5CA8FF"/>
</svg>
