<svg width="14" height="14" viewBox="0 0 14 14" fill="none" xmlns="http://www.w3.org/2000/svg">
<path d="M6.1 1.00168C5.69497 1.00717 5.45182 1.03062 5.25521 1.13079C5.02942 1.24584 4.84584 1.42942 4.73079 1.65521C4.63062 1.85182 4.60717 2.09497 4.60168 2.5M11.5 1.00168C11.905 1.00717 12.1482 1.03062 12.3448 1.13079C12.5706 1.24584 12.7542 1.42942 12.8692 1.65521C12.9694 1.85182 12.9928 2.09497 12.9983 2.49999M12.9983 7.89999C12.9928 8.30503 12.9694 8.54818 12.8692 8.74479C12.7542 8.97058 12.5706 9.15416 12.3448 9.26921C12.1482 9.36938 11.905 9.39283 11.5 9.39832M13 4.6V5.8M8.20003 1H9.39998M2.92 13H7.48C8.15206 13 8.48809 13 8.74479 12.8692C8.97058 12.7542 9.15416 12.5706 9.26921 12.3448C9.4 12.0881 9.4 11.7521 9.4 11.08V6.52C9.4 5.84794 9.4 5.51191 9.26921 5.25521C9.15416 5.02942 8.97058 4.84584 8.74479 4.73079C8.48809 4.6 8.15206 4.6 7.48 4.6H2.92C2.24794 4.6 1.91191 4.6 1.65521 4.73079C1.42942 4.84584 1.24584 5.02942 1.13079 5.25521C1 5.51191 1 5.84794 1 6.52V11.08C1 11.7521 1 12.0881 1.13079 12.3448C1.24584 12.5706 1.42942 12.7542 1.65521 12.8692C1.91191 13 2.24794 13 2.92 13Z" stroke="white" stroke-linecap="round" stroke-linejoin="round"/>
</svg>
