<svg width="14" height="20" viewBox="0 0 14 20" fill="none" xmlns="http://www.w3.org/2000/svg">
<path fill-rule="evenodd" clip-rule="evenodd" d="M6.9531 0.576782L10.1102 5.29387L13.2673 10.0121L6.9531 13.1931L0.638916 10.0001L3.79601 5.28187L6.9531 0.576782ZM6.9531 14.4641L0.989098 11.2819L6.9531 19.4233L12.9171 11.2819L6.9531 14.4641Z" fill="#161514"/>
<path fill-rule="evenodd" clip-rule="evenodd" d="M6.95312 0.576782L10.1102 5.28187L13.2673 10.0001L6.95312 7.61642V0.576782Z" fill="white"/>
<path fill-rule="evenodd" clip-rule="evenodd" d="M6.95312 14.464L12.9291 11.2819L6.95312 19.4353V14.464Z" fill="white"/>
<path fill-rule="evenodd" clip-rule="evenodd" d="M6.95312 7.61633L13.2673 9.99997L6.95312 13.1811V7.61633Z" fill="#C1CCF7"/>
<path fill-rule="evenodd" clip-rule="evenodd" d="M6.9531 0.576782L3.79601 5.28187L0.638916 10.0001L6.9531 7.61642V0.576782Z" fill="#C1CCF7"/>
<path fill-rule="evenodd" clip-rule="evenodd" d="M6.95314 14.464L0.989136 11.2819L6.95314 19.4353V14.464Z" fill="#C1CCF7"/>
<path fill-rule="evenodd" clip-rule="evenodd" d="M6.9531 7.61633L0.638916 9.99997L6.9531 13.1811V7.61633Z" fill="#8198EE"/>
</svg>
