<svg width="22" height="20" viewBox="0 0 22 20" fill="none" xmlns="http://www.w3.org/2000/svg">
<path d="M20.01 0.750244L12.197 6.53126L13.6499 3.12433L20.01 0.750244Z" fill="#E17726" stroke="#E17726" stroke-width="0.142857" stroke-linecap="round" stroke-linejoin="round"/>
<path d="M1.98901 0.750244L9.73243 6.58526L8.34914 3.12433L1.98901 0.750244Z" fill="#E27625" stroke="#E27625" stroke-width="0.142857" stroke-linecap="round" stroke-linejoin="round"/>
<path d="M17.1977 14.1549L15.1189 17.3306L19.5701 18.5562L20.8453 14.2243L17.1977 14.1549Z" fill="#E27625" stroke="#E27625" stroke-width="0.142857" stroke-linecap="round" stroke-linejoin="round"/>
<path d="M1.16235 14.2243L2.42973 18.5562L6.87332 17.3306L4.8022 14.1549L1.16235 14.2243Z" fill="#E27625" stroke="#E27625" stroke-width="0.142857" stroke-linecap="round" stroke-linejoin="round"/>
<path d="M6.63293 8.78895L5.39648 10.6543L9.80138 10.8547L9.65459 6.11426L6.63293 8.78895Z" fill="#E27625" stroke="#E27625" stroke-width="0.142857" stroke-linecap="round" stroke-linejoin="round"/>
<path d="M15.3654 8.79004L12.2975 6.0614L12.197 10.8558L16.6019 10.6554L15.3654 8.79004Z" fill="#E27625" stroke="#E27625" stroke-width="0.142857" stroke-linecap="round" stroke-linejoin="round"/>
<path d="M6.87329 17.3298L9.53944 16.0426L7.24426 14.2543L6.87329 17.3298Z" fill="#E27625" stroke="#E27625" stroke-width="0.142857" stroke-linecap="round" stroke-linejoin="round"/>
<path d="M12.4604 16.0426L15.1188 17.3298L14.7556 14.2543L12.4604 16.0426Z" fill="#E27625" stroke="#E27625" stroke-width="0.142857" stroke-linecap="round" stroke-linejoin="round"/>
<path d="M15.1188 17.3308L12.4604 16.0436L12.6768 17.7701L12.6536 18.5024L15.1188 17.3308Z" fill="#D5BFB2" stroke="#D5BFB2" stroke-width="0.142857" stroke-linecap="round" stroke-linejoin="round"/>
<path d="M6.87329 17.3308L9.34628 18.5024L9.33083 17.7701L9.53944 16.0436L6.87329 17.3308Z" fill="#D5BFB2" stroke="#D5BFB2" stroke-width="0.142857" stroke-linecap="round" stroke-linejoin="round"/>
<path d="M9.39331 13.113L7.18311 12.4655L8.74415 11.7487L9.39331 13.113Z" fill="#233447" stroke="#233447" stroke-width="0.142857" stroke-linecap="round" stroke-linejoin="round"/>
<path d="M12.6072 13.113L13.2563 11.7487L14.8251 12.4655L12.6072 13.113Z" fill="#233447" stroke="#233447" stroke-width="0.142857" stroke-linecap="round" stroke-linejoin="round"/>
<path d="M6.87354 17.3306L7.25997 14.1549L4.80249 14.2243L6.87354 17.3306Z" fill="#CC6228" stroke="#CC6228" stroke-width="0.142857" stroke-linecap="round" stroke-linejoin="round"/>
<path d="M14.7405 14.1549L15.1191 17.3306L17.198 14.2243L14.7405 14.1549Z" fill="#CC6228" stroke="#CC6228" stroke-width="0.142857" stroke-linecap="round" stroke-linejoin="round"/>
<path d="M16.6019 10.6549L12.197 10.8553L12.6066 13.1138L13.2558 11.7495L14.8245 12.4663L16.6019 10.6549Z" fill="#CC6228" stroke="#CC6228" stroke-width="0.142857" stroke-linecap="round" stroke-linejoin="round"/>
<path d="M7.18166 12.4663L8.74264 11.7495L9.39186 13.1138L9.80138 10.8553L5.39648 10.6549L7.18166 12.4663Z" fill="#CC6228" stroke="#CC6228" stroke-width="0.142857" stroke-linecap="round" stroke-linejoin="round"/>
<path d="M5.39648 10.6549L7.24348 14.2546L7.1816 12.4663L5.39648 10.6549Z" fill="#E27525" stroke="#E27525" stroke-width="0.142857" stroke-linecap="round" stroke-linejoin="round"/>
<path d="M14.8244 12.4663L14.7549 14.2546L16.6019 10.6549L14.8244 12.4663Z" fill="#E27525" stroke="#E27525" stroke-width="0.142857" stroke-linecap="round" stroke-linejoin="round"/>
<path d="M9.80265 10.8553L9.39307 13.1139L9.91083 15.7808L10.0268 12.2659L9.80265 10.8553Z" fill="#E27525" stroke="#E27525" stroke-width="0.142857" stroke-linecap="round" stroke-linejoin="round"/>
<path d="M12.1976 10.8553L11.9812 12.2582L12.0894 15.7808L12.6071 13.1139L12.1976 10.8553Z" fill="#E27525" stroke="#E27525" stroke-width="0.142857" stroke-linecap="round" stroke-linejoin="round"/>
<path d="M12.6074 13.114L12.0896 15.7809L12.4605 16.043L14.7557 14.2547L14.8253 12.4664L12.6074 13.114Z" fill="#F5841F" stroke="#F5841F" stroke-width="0.142857" stroke-linecap="round" stroke-linejoin="round"/>
<path d="M7.18311 12.4664L7.24499 14.2547L9.54016 16.043L9.91107 15.7809L9.39331 13.114L7.18311 12.4664Z" fill="#F5841F" stroke="#F5841F" stroke-width="0.142857" stroke-linecap="round" stroke-linejoin="round"/>
<path d="M12.6538 18.5021L12.677 17.7698L12.4761 17.6002H9.52404L9.33083 17.7698L9.34628 18.5021L6.87329 17.3304L7.73881 18.0396L9.49307 19.2498H12.4992L14.2612 18.0396L15.119 17.3304L12.6538 18.5021Z" fill="#C0AC9D" stroke="#C0AC9D" stroke-width="0.142857" stroke-linecap="round" stroke-linejoin="round"/>
<path d="M12.4611 16.0431L12.0902 15.7811H9.91088L9.54003 16.0431L9.3313 17.7698L9.52451 17.6002H12.4766L12.6775 17.7698L12.4611 16.0431Z" fill="#161616" stroke="#161616" stroke-width="0.142857" stroke-linecap="round" stroke-linejoin="round"/>
<path d="M20.3429 6.90897L20.9998 3.71785L20.0106 0.750244L12.4604 6.3386L15.366 8.78971L19.4696 9.98451L20.3738 8.9285L19.9797 8.64328L20.6056 8.07291L20.1265 7.70291L20.7525 7.22503L20.3429 6.90897Z" fill="#763E1A" stroke="#763E1A" stroke-width="0.142857" stroke-linecap="round" stroke-linejoin="round"/>
<path d="M1 3.71785L1.6646 6.90897L1.23957 7.22503L1.87326 7.70291L1.39412 8.07291L2.02009 8.64328L1.62596 8.9285L2.53013 9.98451L6.63369 8.78971L9.53935 6.3386L1.98918 0.750244L1 3.71785Z" fill="#763E1A" stroke="#763E1A" stroke-width="0.142857" stroke-linecap="round" stroke-linejoin="round"/>
<path d="M19.4689 9.98429L15.3654 8.78955L16.6019 10.655L14.7549 14.2546L17.1969 14.2238H20.8445L19.4689 9.98429Z" fill="#F5841F" stroke="#F5841F" stroke-width="0.142857" stroke-linecap="round" stroke-linejoin="round"/>
<path d="M6.63368 8.78955L2.5302 9.98429L1.16235 14.2238H4.8022L7.24423 14.2546L5.39726 10.655L6.63368 8.78955Z" fill="#F5841F" stroke="#F5841F" stroke-width="0.142857" stroke-linecap="round" stroke-linejoin="round"/>
<path d="M12.1981 10.8561L12.4609 6.33911L13.6509 3.12488H8.34961L9.53968 6.33911L9.80241 10.8561L9.9029 12.2743L9.91059 15.7815H12.0899L12.0976 12.2743L12.1981 10.8561Z" fill="#F5841F" stroke="#F5841F" stroke-width="0.142857" stroke-linecap="round" stroke-linejoin="round"/>
</svg>
