<svg width="116" height="40" viewBox="0 0 116 40" fill="none" xmlns="http://www.w3.org/2000/svg">
<path d="M111.054 28.3096V11.6833H113.729V26.1078H116V28.3096H111.054Z" fill="white"/>
<path d="M103.112 11.6833H106.215L108.216 28.3096H105.585L105.293 24.6923H103.899L103.607 28.3096H101.111L103.112 11.6833ZM104.349 19.0753L104.079 22.4904H105.113L104.821 19.0753L104.619 16.1994H104.551L104.349 19.0753Z" fill="white"/>
<path d="M99.4295 13.8852H97.6533V28.3096H94.9778V13.8852H93.2017V11.6833H99.4295V13.8852Z" fill="white"/>
<path d="M87.9335 26.4673V22.1085C87.9335 21.3895 87.7537 20.9851 87.304 20.9851H86.7195V28.3096H84.0215V11.6833H87.5288C89.4399 11.6833 90.609 12.8067 90.609 14.8289V17.7272C90.609 18.6709 90.3617 19.4348 89.305 19.9516C90.3617 20.4908 90.609 21.2547 90.609 22.2208V26.4673C90.609 27.0739 90.699 27.703 90.9463 28.3096H88.2483C87.9785 27.7704 87.9335 27.0514 87.9335 26.4673ZM87.9335 17.8396V14.8289C87.9335 14.0874 87.7537 13.683 87.304 13.683H86.7195V18.963H87.304C87.7537 18.963 87.9335 18.5585 87.9335 17.8396Z" fill="white"/>
<path d="M80.8502 14.8514V25.1417C80.8502 27.2986 79.6137 28.4894 77.5677 28.4894C75.4993 28.4894 74.2627 27.2986 74.2627 25.1417V14.8514C74.2627 12.6945 75.4993 11.5037 77.5677 11.5037C79.6137 11.5037 80.8502 12.6945 80.8502 14.8514ZM76.9382 25.3664C76.9382 26.0404 77.118 26.4449 77.5677 26.4449C77.9949 26.4449 78.1747 26.0404 78.1747 25.3664V14.6267C78.1747 13.9527 77.9949 13.5482 77.5677 13.5482C77.118 13.5482 76.9382 13.9527 76.9382 14.6267V25.3664Z" fill="white"/>
<path d="M67.3361 28.3096H64.6606V11.6833H68.168C70.0791 11.6833 71.2482 12.8067 71.2482 14.8289V18.918C71.2482 20.9177 70.0791 22.0411 68.168 22.0411H67.3361V28.3096ZM67.3586 20.0414H67.9432C68.3928 20.0414 68.5727 19.637 68.5727 18.918V14.8289C68.5727 14.0874 68.3928 13.683 67.9432 13.683H67.3586V20.0414Z" fill="white"/>
<path d="M53.4572 28.3096L52.6927 18.6484H52.6478L51.8609 28.3096H49.2978L47.8589 11.6833H50.4669L51.029 21.3446H51.074L51.7485 11.6833H53.7719L54.4689 21.3446H54.5139L55.0535 11.6833H57.4816L56.0202 28.3096H53.4572Z" fill="white"/>
<path d="M45.2462 14.8514V25.1417C45.2462 27.2986 44.0097 28.4894 41.9637 28.4894C39.8953 28.4894 38.6587 27.2986 38.6587 25.1417V14.8514C38.6587 12.6945 39.8953 11.5037 41.9637 11.5037C44.0097 11.5037 45.2462 12.6945 45.2462 14.8514ZM41.3342 25.3664C41.3342 26.0404 41.514 26.4449 41.9637 26.4449C42.3909 26.4449 42.5707 26.0404 42.5707 25.3664V14.6267C42.5707 13.9527 42.3909 13.5482 41.9637 13.5482C41.514 13.5482 41.3342 13.9527 41.3342 14.6267V25.3664Z" fill="white"/>
<path d="M35.5563 14.8289V25.1866C35.5563 27.1862 34.3872 28.3096 32.4761 28.3096H28.9688V11.6833H32.4761C34.3872 11.6833 35.5563 12.8067 35.5563 14.8289ZM31.6667 26.31H32.2513C32.7009 26.31 32.8808 25.9056 32.8808 25.1641V14.8289C32.8808 14.0874 32.7009 13.683 32.2513 13.683H31.6667V26.31Z" fill="white"/>
<path d="M21.0274 11.6833H24.13L26.131 28.3096H23.5005L23.2082 24.6923H21.8143L21.522 28.3096H19.0264L21.0274 11.6833ZM22.2639 19.0753L21.9941 22.4904H23.0283L22.7361 19.0753L22.5337 16.1994H22.4663L22.2639 19.0753Z" fill="white"/>
<path d="M13.5251 28.3096V21.0525H12.0861V28.3096H9.38818V11.6833H12.0861V18.7832H13.5251V11.6833H16.2005V28.3096H13.5251Z" fill="white"/>
<path d="M6.29525 14.8739V17.9969H3.79964V14.6267C3.79964 13.9527 3.61977 13.5482 3.19259 13.5482C2.76542 13.5482 2.60803 13.9527 2.60803 14.6267V16.6713C2.60803 17.5925 2.90031 17.907 3.57481 18.5586L4.85634 19.7269C5.95801 20.7829 6.34022 21.457 6.34022 23.1421V25.1192C6.34022 27.2986 5.10365 28.4894 3.12514 28.4894C1.12415 28.4894 0 27.2986 0 25.1192V21.9288H2.5181V25.3664C2.5181 26.0404 2.69797 26.4449 3.12514 26.4449C3.55232 26.4449 3.7097 26.0404 3.7097 25.3664V23.2095C3.7097 22.2883 3.50736 22.0861 2.81038 21.457L1.48388 20.2662C0.51711 19.3674 0 18.5811 0 17.0308V14.8739C0 12.6945 1.21408 11.5037 3.21508 11.5037C5.21607 11.5037 6.29525 12.6945 6.29525 14.8739Z" fill="white"/>
<path d="M59.9756 0V40L76.0135 35.2762V30.1107H74.2149V33.9322L62.074 37.508V2.49195L74.2149 6.06789V9.88943H76.0135V4.72378L59.9756 0Z" fill="#5CA8FF"/>
</svg>
